%TF.GenerationSoftware,KiCad,Pcbnew,5.1.12-84ad8e8a86~92~ubuntu20.04.1*%
%TF.CreationDate,2021-11-26T19:12:35+01:00*%
%TF.ProjectId,led-ring-with-crossbar,6c65642d-7269-46e6-972d-776974682d63,rev?*%
%TF.SameCoordinates,Original*%
%TF.FileFunction,Legend,Bot*%
%TF.FilePolarity,Positive*%
%FSLAX46Y46*%
G04 Gerber Fmt 4.6, Leading zero omitted, Abs format (unit mm)*
G04 Created by KiCad (PCBNEW 5.1.12-84ad8e8a86~92~ubuntu20.04.1) date 2021-11-26 19:12:35*
%MOMM*%
%LPD*%
G01*
G04 APERTURE LIST*
%ADD10C,0.150000*%
%ADD11C,0.120000*%
G04 APERTURE END LIST*
D10*
X119071428Y-97852380D02*
X119547619Y-97852380D01*
X119547619Y-96852380D01*
X118738095Y-97328571D02*
X118404761Y-97328571D01*
X118261904Y-97852380D02*
X118738095Y-97852380D01*
X118738095Y-96852380D01*
X118261904Y-96852380D01*
X117833333Y-97852380D02*
X117833333Y-96852380D01*
X117595238Y-96852380D01*
X117452380Y-96900000D01*
X117357142Y-96995238D01*
X117309523Y-97090476D01*
X117261904Y-97280952D01*
X117261904Y-97423809D01*
X117309523Y-97614285D01*
X117357142Y-97709523D01*
X117452380Y-97804761D01*
X117595238Y-97852380D01*
X117833333Y-97852380D01*
X116071428Y-97852380D02*
X116071428Y-97185714D01*
X116071428Y-97376190D02*
X116023809Y-97280952D01*
X115976190Y-97233333D01*
X115880952Y-97185714D01*
X115785714Y-97185714D01*
X115452380Y-97852380D02*
X115452380Y-97185714D01*
X115452380Y-96852380D02*
X115500000Y-96900000D01*
X115452380Y-96947619D01*
X115404761Y-96900000D01*
X115452380Y-96852380D01*
X115452380Y-96947619D01*
X114976190Y-97185714D02*
X114976190Y-97852380D01*
X114976190Y-97280952D02*
X114928571Y-97233333D01*
X114833333Y-97185714D01*
X114690476Y-97185714D01*
X114595238Y-97233333D01*
X114547619Y-97328571D01*
X114547619Y-97852380D01*
X113642857Y-97185714D02*
X113642857Y-97995238D01*
X113690476Y-98090476D01*
X113738095Y-98138095D01*
X113833333Y-98185714D01*
X113976190Y-98185714D01*
X114071428Y-98138095D01*
X113642857Y-97804761D02*
X113738095Y-97852380D01*
X113928571Y-97852380D01*
X114023809Y-97804761D01*
X114071428Y-97757142D01*
X114119047Y-97661904D01*
X114119047Y-97376190D01*
X114071428Y-97280952D01*
X114023809Y-97233333D01*
X113928571Y-97185714D01*
X113738095Y-97185714D01*
X113642857Y-97233333D01*
X112500000Y-97185714D02*
X112309523Y-97852380D01*
X112119047Y-97376190D01*
X111928571Y-97852380D01*
X111738095Y-97185714D01*
X111357142Y-97852380D02*
X111357142Y-97185714D01*
X111357142Y-96852380D02*
X111404761Y-96900000D01*
X111357142Y-96947619D01*
X111309523Y-96900000D01*
X111357142Y-96852380D01*
X111357142Y-96947619D01*
X111023809Y-97185714D02*
X110642857Y-97185714D01*
X110880952Y-96852380D02*
X110880952Y-97709523D01*
X110833333Y-97804761D01*
X110738095Y-97852380D01*
X110642857Y-97852380D01*
X110309523Y-97852380D02*
X110309523Y-96852380D01*
X109880952Y-97852380D02*
X109880952Y-97328571D01*
X109928571Y-97233333D01*
X110023809Y-97185714D01*
X110166666Y-97185714D01*
X110261904Y-97233333D01*
X110309523Y-97280952D01*
X108785714Y-97185714D02*
X108404761Y-97185714D01*
X108642857Y-96852380D02*
X108642857Y-97709523D01*
X108595238Y-97804761D01*
X108500000Y-97852380D01*
X108404761Y-97852380D01*
X108071428Y-97852380D02*
X108071428Y-97185714D01*
X108071428Y-97376190D02*
X108023809Y-97280952D01*
X107976190Y-97233333D01*
X107880952Y-97185714D01*
X107785714Y-97185714D01*
X107023809Y-97852380D02*
X107023809Y-97328571D01*
X107071428Y-97233333D01*
X107166666Y-97185714D01*
X107357142Y-97185714D01*
X107452380Y-97233333D01*
X107023809Y-97804761D02*
X107119047Y-97852380D01*
X107357142Y-97852380D01*
X107452380Y-97804761D01*
X107500000Y-97709523D01*
X107500000Y-97614285D01*
X107452380Y-97519047D01*
X107357142Y-97471428D01*
X107119047Y-97471428D01*
X107023809Y-97423809D01*
X106547619Y-97185714D02*
X106547619Y-97852380D01*
X106547619Y-97280952D02*
X106500000Y-97233333D01*
X106404761Y-97185714D01*
X106261904Y-97185714D01*
X106166666Y-97233333D01*
X106119047Y-97328571D01*
X106119047Y-97852380D01*
X105690476Y-97804761D02*
X105595238Y-97852380D01*
X105404761Y-97852380D01*
X105309523Y-97804761D01*
X105261904Y-97709523D01*
X105261904Y-97661904D01*
X105309523Y-97566666D01*
X105404761Y-97519047D01*
X105547619Y-97519047D01*
X105642857Y-97471428D01*
X105690476Y-97376190D01*
X105690476Y-97328571D01*
X105642857Y-97233333D01*
X105547619Y-97185714D01*
X105404761Y-97185714D01*
X105309523Y-97233333D01*
X104690476Y-97852380D02*
X104785714Y-97804761D01*
X104833333Y-97757142D01*
X104880952Y-97661904D01*
X104880952Y-97376190D01*
X104833333Y-97280952D01*
X104785714Y-97233333D01*
X104690476Y-97185714D01*
X104547619Y-97185714D01*
X104452380Y-97233333D01*
X104404761Y-97280952D01*
X104357142Y-97376190D01*
X104357142Y-97661904D01*
X104404761Y-97757142D01*
X104452380Y-97804761D01*
X104547619Y-97852380D01*
X104690476Y-97852380D01*
X103928571Y-97852380D02*
X103928571Y-97185714D01*
X103928571Y-97280952D02*
X103880952Y-97233333D01*
X103785714Y-97185714D01*
X103642857Y-97185714D01*
X103547619Y-97233333D01*
X103500000Y-97328571D01*
X103500000Y-97852380D01*
X103500000Y-97328571D02*
X103452380Y-97233333D01*
X103357142Y-97185714D01*
X103214285Y-97185714D01*
X103119047Y-97233333D01*
X103071428Y-97328571D01*
X103071428Y-97852380D01*
X101928571Y-97185714D02*
X101690476Y-97852380D01*
X101452380Y-97185714D01*
X100547619Y-97852380D02*
X101119047Y-97852380D01*
X100833333Y-97852380D02*
X100833333Y-96852380D01*
X100928571Y-96995238D01*
X101023809Y-97090476D01*
X101119047Y-97138095D01*
X100119047Y-97757142D02*
X100071428Y-97804761D01*
X100119047Y-97852380D01*
X100166666Y-97804761D01*
X100119047Y-97757142D01*
X100119047Y-97852380D01*
X99452380Y-96852380D02*
X99357142Y-96852380D01*
X99261904Y-96900000D01*
X99214285Y-96947619D01*
X99166666Y-97042857D01*
X99119047Y-97233333D01*
X99119047Y-97471428D01*
X99166666Y-97661904D01*
X99214285Y-97757142D01*
X99261904Y-97804761D01*
X99357142Y-97852380D01*
X99452380Y-97852380D01*
X99547619Y-97804761D01*
X99595238Y-97757142D01*
X99642857Y-97661904D01*
X99690476Y-97471428D01*
X99690476Y-97233333D01*
X99642857Y-97042857D01*
X99595238Y-96947619D01*
X99547619Y-96900000D01*
X99452380Y-96852380D01*
X97928571Y-97471428D02*
X97166666Y-97471428D01*
X95928571Y-97852380D02*
X95928571Y-96852380D01*
X95928571Y-97233333D02*
X95833333Y-97185714D01*
X95642857Y-97185714D01*
X95547619Y-97233333D01*
X95500000Y-97280952D01*
X95452380Y-97376190D01*
X95452380Y-97661904D01*
X95500000Y-97757142D01*
X95547619Y-97804761D01*
X95642857Y-97852380D01*
X95833333Y-97852380D01*
X95928571Y-97804761D01*
X95119047Y-97185714D02*
X94880952Y-97852380D01*
X94642857Y-97185714D02*
X94880952Y-97852380D01*
X94976190Y-98090476D01*
X95023809Y-98138095D01*
X95119047Y-98185714D01*
X93500000Y-97852380D02*
X93500000Y-96852380D01*
X93166666Y-97566666D01*
X92833333Y-96852380D01*
X92833333Y-97852380D01*
X92357142Y-97757142D02*
X92309523Y-97804761D01*
X92357142Y-97852380D01*
X92404761Y-97804761D01*
X92357142Y-97757142D01*
X92357142Y-97852380D01*
X90595238Y-96900000D02*
X90690476Y-96852380D01*
X90833333Y-96852380D01*
X90976190Y-96900000D01*
X91071428Y-96995238D01*
X91119047Y-97090476D01*
X91166666Y-97280952D01*
X91166666Y-97423809D01*
X91119047Y-97614285D01*
X91071428Y-97709523D01*
X90976190Y-97804761D01*
X90833333Y-97852380D01*
X90738095Y-97852380D01*
X90595238Y-97804761D01*
X90547619Y-97757142D01*
X90547619Y-97423809D01*
X90738095Y-97423809D01*
X90119047Y-97852380D02*
X90119047Y-97185714D01*
X90119047Y-97376190D02*
X90071428Y-97280952D01*
X90023809Y-97233333D01*
X89928571Y-97185714D01*
X89833333Y-97185714D01*
X89071428Y-97852380D02*
X89071428Y-97328571D01*
X89119047Y-97233333D01*
X89214285Y-97185714D01*
X89404761Y-97185714D01*
X89500000Y-97233333D01*
X89071428Y-97804761D02*
X89166666Y-97852380D01*
X89404761Y-97852380D01*
X89500000Y-97804761D01*
X89547619Y-97709523D01*
X89547619Y-97614285D01*
X89500000Y-97519047D01*
X89404761Y-97471428D01*
X89166666Y-97471428D01*
X89071428Y-97423809D01*
X88166666Y-97185714D02*
X88166666Y-97852380D01*
X88595238Y-97185714D02*
X88595238Y-97709523D01*
X88547619Y-97804761D01*
X88452380Y-97852380D01*
X88309523Y-97852380D01*
X88214285Y-97804761D01*
X88166666Y-97757142D01*
X86976190Y-96947619D02*
X86928571Y-96900000D01*
X86833333Y-96852380D01*
X86595238Y-96852380D01*
X86500000Y-96900000D01*
X86452380Y-96947619D01*
X86404761Y-97042857D01*
X86404761Y-97138095D01*
X86452380Y-97280952D01*
X87023809Y-97852380D01*
X86404761Y-97852380D01*
X85785714Y-96852380D02*
X85690476Y-96852380D01*
X85595238Y-96900000D01*
X85547619Y-96947619D01*
X85500000Y-97042857D01*
X85452380Y-97233333D01*
X85452380Y-97471428D01*
X85500000Y-97661904D01*
X85547619Y-97757142D01*
X85595238Y-97804761D01*
X85690476Y-97852380D01*
X85785714Y-97852380D01*
X85880952Y-97804761D01*
X85928571Y-97757142D01*
X85976190Y-97661904D01*
X86023809Y-97471428D01*
X86023809Y-97233333D01*
X85976190Y-97042857D01*
X85928571Y-96947619D01*
X85880952Y-96900000D01*
X85785714Y-96852380D01*
X85071428Y-96947619D02*
X85023809Y-96900000D01*
X84928571Y-96852380D01*
X84690476Y-96852380D01*
X84595238Y-96900000D01*
X84547619Y-96947619D01*
X84500000Y-97042857D01*
X84500000Y-97138095D01*
X84547619Y-97280952D01*
X85119047Y-97852380D01*
X84500000Y-97852380D01*
X83547619Y-97852380D02*
X84119047Y-97852380D01*
X83833333Y-97852380D02*
X83833333Y-96852380D01*
X83928571Y-96995238D01*
X84023809Y-97090476D01*
X84119047Y-97138095D01*
X83119047Y-97471428D02*
X82357142Y-97471428D01*
X81357142Y-97852380D02*
X81928571Y-97852380D01*
X81642857Y-97852380D02*
X81642857Y-96852380D01*
X81738095Y-96995238D01*
X81833333Y-97090476D01*
X81928571Y-97138095D01*
X80976190Y-96947619D02*
X80928571Y-96900000D01*
X80833333Y-96852380D01*
X80595238Y-96852380D01*
X80500000Y-96900000D01*
X80452380Y-96947619D01*
X80404761Y-97042857D01*
X80404761Y-97138095D01*
X80452380Y-97280952D01*
X81023809Y-97852380D01*
X80404761Y-97852380D01*
D11*
%TO.C,J_OUT1*%
X73790000Y-105090000D02*
X73790000Y-108510000D01*
X73790000Y-108510000D02*
X66820000Y-108510000D01*
X66820000Y-108510000D02*
X66820000Y-105090000D01*
X66820000Y-105090000D02*
X73790000Y-105090000D01*
X70305000Y-108000000D02*
X73280000Y-108000000D01*
X73280000Y-108000000D02*
X73280000Y-107250000D01*
X73280000Y-107250000D02*
X73480000Y-107250000D01*
X73480000Y-107250000D02*
X73480000Y-106450000D01*
X73480000Y-106450000D02*
X73280000Y-106450000D01*
X73280000Y-106450000D02*
X73280000Y-105600000D01*
X73280000Y-105600000D02*
X70305000Y-105600000D01*
X70305000Y-108000000D02*
X67330000Y-108000000D01*
X67330000Y-108000000D02*
X67330000Y-107250000D01*
X67330000Y-107250000D02*
X67130000Y-107250000D01*
X67130000Y-107250000D02*
X67130000Y-106450000D01*
X67130000Y-106450000D02*
X67330000Y-106450000D01*
X67330000Y-106450000D02*
X67330000Y-105600000D01*
X67330000Y-105600000D02*
X70305000Y-105600000D01*
X74080000Y-108800000D02*
X74080000Y-107800000D01*
X74080000Y-108800000D02*
X73080000Y-108800000D01*
%TO.C,J_IN1*%
X126070000Y-94910000D02*
X126070000Y-91490000D01*
X126070000Y-91490000D02*
X133040000Y-91490000D01*
X133040000Y-91490000D02*
X133040000Y-94910000D01*
X133040000Y-94910000D02*
X126070000Y-94910000D01*
X129555000Y-92000000D02*
X126580000Y-92000000D01*
X126580000Y-92000000D02*
X126580000Y-92750000D01*
X126580000Y-92750000D02*
X126380000Y-92750000D01*
X126380000Y-92750000D02*
X126380000Y-93550000D01*
X126380000Y-93550000D02*
X126580000Y-93550000D01*
X126580000Y-93550000D02*
X126580000Y-94400000D01*
X126580000Y-94400000D02*
X129555000Y-94400000D01*
X129555000Y-92000000D02*
X132530000Y-92000000D01*
X132530000Y-92000000D02*
X132530000Y-92750000D01*
X132530000Y-92750000D02*
X132730000Y-92750000D01*
X132730000Y-92750000D02*
X132730000Y-93550000D01*
X132730000Y-93550000D02*
X132530000Y-93550000D01*
X132530000Y-93550000D02*
X132530000Y-94400000D01*
X132530000Y-94400000D02*
X129555000Y-94400000D01*
X125780000Y-91200000D02*
X125780000Y-92200000D01*
X125780000Y-91200000D02*
X126780000Y-91200000D01*
%TO.C,C42*%
X63039420Y-99490000D02*
X63320580Y-99490000D01*
X63039420Y-100510000D02*
X63320580Y-100510000D01*
%TO.C,C41*%
X71219420Y-99490000D02*
X71500580Y-99490000D01*
X71219420Y-100510000D02*
X71500580Y-100510000D01*
%TO.C,C40*%
X79399420Y-99490000D02*
X79680580Y-99490000D01*
X79399420Y-100510000D02*
X79680580Y-100510000D01*
%TO.C,C39*%
X87579420Y-99490000D02*
X87860580Y-99490000D01*
X87579420Y-100510000D02*
X87860580Y-100510000D01*
%TO.C,C38*%
X95759420Y-99490000D02*
X96040580Y-99490000D01*
X95759420Y-100510000D02*
X96040580Y-100510000D01*
%TO.C,C37*%
X103939420Y-99490000D02*
X104220580Y-99490000D01*
X103939420Y-100510000D02*
X104220580Y-100510000D01*
%TO.C,C36*%
X112119420Y-99490000D02*
X112400580Y-99490000D01*
X112119420Y-100510000D02*
X112400580Y-100510000D01*
%TO.C,C35*%
X120299420Y-99490000D02*
X120580580Y-99490000D01*
X120299420Y-100510000D02*
X120580580Y-100510000D01*
%TO.C,C34*%
X128479420Y-99490000D02*
X128760580Y-99490000D01*
X128479420Y-100510000D02*
X128760580Y-100510000D01*
%TO.C,C33*%
X136659420Y-99490000D02*
X136940580Y-99490000D01*
X136659420Y-100510000D02*
X136940580Y-100510000D01*
%TO.C,C32*%
X145510000Y-99859420D02*
X145510000Y-100140580D01*
X144490000Y-99859420D02*
X144490000Y-100140580D01*
%TO.C,C31*%
X144662660Y-108741078D02*
X144607567Y-109016787D01*
X143662433Y-108541213D02*
X143607340Y-108816922D01*
%TO.C,C30*%
X142099976Y-117286290D02*
X141992381Y-117546048D01*
X141157619Y-116895952D02*
X141050024Y-117155710D01*
%TO.C,C29*%
X137918006Y-125167891D02*
X137761598Y-125401531D01*
X137070402Y-124600469D02*
X136913994Y-124834109D01*
%TO.C,C28*%
X132280030Y-132081219D02*
X132081219Y-132280030D01*
X131558781Y-131359970D02*
X131359970Y-131558781D01*
%TO.C,C27*%
X125400927Y-137762297D02*
X125167015Y-137918297D01*
X124834985Y-136913703D02*
X124601073Y-137069703D01*
%TO.C,C26*%
X117546048Y-141992381D02*
X117286290Y-142099976D01*
X117155710Y-141050024D02*
X116895952Y-141157619D01*
%TO.C,C25*%
X109015962Y-144607982D02*
X108740157Y-144662593D01*
X108817843Y-143607407D02*
X108542038Y-143662018D01*
%TO.C,C24*%
X100140580Y-145510000D02*
X99859420Y-145510000D01*
X100140580Y-144490000D02*
X99859420Y-144490000D01*
%TO.C,C23*%
X91258922Y-144662660D02*
X90983213Y-144607567D01*
X91458787Y-143662433D02*
X91183078Y-143607340D01*
%TO.C,C22*%
X82713710Y-142099976D02*
X82453952Y-141992381D01*
X83104048Y-141157619D02*
X82844290Y-141050024D01*
%TO.C,C21*%
X74832109Y-137918006D02*
X74598469Y-137761598D01*
X75399531Y-137070402D02*
X75165891Y-136913994D01*
%TO.C,C20*%
X67918781Y-132280030D02*
X67719970Y-132081219D01*
X68640030Y-131558781D02*
X68441219Y-131359970D01*
%TO.C,C19*%
X62237703Y-125400927D02*
X62081703Y-125167015D01*
X63086297Y-124834985D02*
X62930297Y-124601073D01*
%TO.C,C18*%
X58007619Y-117546048D02*
X57900024Y-117286290D01*
X58949976Y-117155710D02*
X58842381Y-116895952D01*
%TO.C,C17*%
X55392018Y-109015962D02*
X55337407Y-108740157D01*
X56392593Y-108817843D02*
X56337982Y-108542038D01*
%TO.C,C16*%
X54490000Y-100140580D02*
X54490000Y-99859420D01*
X55510000Y-100140580D02*
X55510000Y-99859420D01*
%TO.C,C15*%
X55337340Y-91258922D02*
X55392433Y-90983213D01*
X56337567Y-91458787D02*
X56392660Y-91183078D01*
%TO.C,C14*%
X57900024Y-82713710D02*
X58007619Y-82453952D01*
X58842381Y-83104048D02*
X58949976Y-82844290D01*
%TO.C,C13*%
X62081994Y-74832109D02*
X62238402Y-74598469D01*
X62929598Y-75399531D02*
X63086006Y-75165891D01*
%TO.C,C12*%
X67719970Y-67918781D02*
X67918781Y-67719970D01*
X68441219Y-68640030D02*
X68640030Y-68441219D01*
%TO.C,C11*%
X74590073Y-62237703D02*
X74823985Y-62081703D01*
X75156015Y-63086297D02*
X75389927Y-62930297D01*
%TO.C,C10*%
X82453952Y-58007619D02*
X82713710Y-57900024D01*
X82844290Y-58949976D02*
X83104048Y-58842381D01*
%TO.C,C9*%
X90984038Y-55392018D02*
X91259843Y-55337407D01*
X91182157Y-56392593D02*
X91457962Y-56337982D01*
%TO.C,C8*%
X99859420Y-54490000D02*
X100140580Y-54490000D01*
X99859420Y-55510000D02*
X100140580Y-55510000D01*
%TO.C,C7*%
X108741078Y-55337340D02*
X109016787Y-55392433D01*
X108541213Y-56337567D02*
X108816922Y-56392660D01*
%TO.C,C6*%
X117286290Y-57900024D02*
X117546048Y-58007619D01*
X116895952Y-58842381D02*
X117155710Y-58949976D01*
%TO.C,C5*%
X125167891Y-62081994D02*
X125401531Y-62238402D01*
X124600469Y-62929598D02*
X124834109Y-63086006D01*
%TO.C,C4*%
X132081219Y-67719970D02*
X132280030Y-67918781D01*
X131359970Y-68441219D02*
X131558781Y-68640030D01*
%TO.C,C3*%
X137762297Y-74599073D02*
X137918297Y-74832985D01*
X136913703Y-75165015D02*
X137069703Y-75398927D01*
%TO.C,C2*%
X141992381Y-82453952D02*
X142099976Y-82713710D01*
X141050024Y-82844290D02*
X141157619Y-83104048D01*
%TO.C,C1*%
X144607982Y-90984038D02*
X144662593Y-91259843D01*
X143607407Y-91182157D02*
X143662018Y-91457962D01*
%TO.C,J_OUT1*%
D10*
X72442857Y-103452380D02*
X72442857Y-104166666D01*
X72490476Y-104309523D01*
X72585714Y-104404761D01*
X72728571Y-104452380D01*
X72823809Y-104452380D01*
X72204761Y-104547619D02*
X71442857Y-104547619D01*
X71014285Y-103452380D02*
X70823809Y-103452380D01*
X70728571Y-103500000D01*
X70633333Y-103595238D01*
X70585714Y-103785714D01*
X70585714Y-104119047D01*
X70633333Y-104309523D01*
X70728571Y-104404761D01*
X70823809Y-104452380D01*
X71014285Y-104452380D01*
X71109523Y-104404761D01*
X71204761Y-104309523D01*
X71252380Y-104119047D01*
X71252380Y-103785714D01*
X71204761Y-103595238D01*
X71109523Y-103500000D01*
X71014285Y-103452380D01*
X70157142Y-103452380D02*
X70157142Y-104261904D01*
X70109523Y-104357142D01*
X70061904Y-104404761D01*
X69966666Y-104452380D01*
X69776190Y-104452380D01*
X69680952Y-104404761D01*
X69633333Y-104357142D01*
X69585714Y-104261904D01*
X69585714Y-103452380D01*
X69252380Y-103452380D02*
X68680952Y-103452380D01*
X68966666Y-104452380D02*
X68966666Y-103452380D01*
X67823809Y-104452380D02*
X68395238Y-104452380D01*
X68109523Y-104452380D02*
X68109523Y-103452380D01*
X68204761Y-103595238D01*
X68300000Y-103690476D01*
X68395238Y-103738095D01*
X72560952Y-109071428D02*
X71799047Y-109071428D01*
X72180000Y-109452380D02*
X72180000Y-108690476D01*
X70971428Y-108719047D02*
X70971428Y-109480952D01*
X70152380Y-108714285D02*
X69152380Y-108714285D01*
X69152380Y-108952380D01*
X69200000Y-109095238D01*
X69295238Y-109190476D01*
X69390476Y-109238095D01*
X69580952Y-109285714D01*
X69723809Y-109285714D01*
X69914285Y-109238095D01*
X70009523Y-109190476D01*
X70104761Y-109095238D01*
X70152380Y-108952380D01*
X70152380Y-108714285D01*
X69152380Y-109904761D02*
X69152380Y-110095238D01*
X69200000Y-110190476D01*
X69295238Y-110285714D01*
X69485714Y-110333333D01*
X69819047Y-110333333D01*
X70009523Y-110285714D01*
X70104761Y-110190476D01*
X70152380Y-110095238D01*
X70152380Y-109904761D01*
X70104761Y-109809523D01*
X70009523Y-109714285D01*
X69819047Y-109666666D01*
X69485714Y-109666666D01*
X69295238Y-109714285D01*
X69200000Y-109809523D01*
X69152380Y-109904761D01*
X68757142Y-109285714D02*
X68804761Y-109238095D01*
X68852380Y-109095238D01*
X68852380Y-109000000D01*
X68804761Y-108857142D01*
X68709523Y-108761904D01*
X68614285Y-108714285D01*
X68423809Y-108666666D01*
X68280952Y-108666666D01*
X68090476Y-108714285D01*
X67995238Y-108761904D01*
X67900000Y-108857142D01*
X67852380Y-109000000D01*
X67852380Y-109095238D01*
X67900000Y-109238095D01*
X67947619Y-109285714D01*
X67852380Y-109904761D02*
X67852380Y-110095238D01*
X67900000Y-110190476D01*
X67995238Y-110285714D01*
X68185714Y-110333333D01*
X68519047Y-110333333D01*
X68709523Y-110285714D01*
X68804761Y-110190476D01*
X68852380Y-110095238D01*
X68852380Y-109904761D01*
X68804761Y-109809523D01*
X68709523Y-109714285D01*
X68519047Y-109666666D01*
X68185714Y-109666666D01*
X67995238Y-109714285D01*
X67900000Y-109809523D01*
X67852380Y-109904761D01*
%TO.C,J_IN1*%
X131036190Y-95452380D02*
X131036190Y-96166666D01*
X131083809Y-96309523D01*
X131179047Y-96404761D01*
X131321904Y-96452380D01*
X131417142Y-96452380D01*
X130798095Y-96547619D02*
X130036190Y-96547619D01*
X129798095Y-96452380D02*
X129798095Y-95452380D01*
X129321904Y-96452380D02*
X129321904Y-95452380D01*
X128750476Y-96452380D01*
X128750476Y-95452380D01*
X127750476Y-96452380D02*
X128321904Y-96452380D01*
X128036190Y-96452380D02*
X128036190Y-95452380D01*
X128131428Y-95595238D01*
X128226666Y-95690476D01*
X128321904Y-95738095D01*
X128060952Y-90821428D02*
X127299047Y-90821428D01*
X127680000Y-91202380D02*
X127680000Y-90440476D01*
X128971428Y-90419047D02*
X128971428Y-91180952D01*
X130627380Y-90150000D02*
X129627380Y-90150000D01*
X129627380Y-90388095D01*
X129675000Y-90530952D01*
X129770238Y-90626190D01*
X129865476Y-90673809D01*
X130055952Y-90721428D01*
X130198809Y-90721428D01*
X130389285Y-90673809D01*
X130484523Y-90626190D01*
X130579761Y-90530952D01*
X130627380Y-90388095D01*
X130627380Y-90150000D01*
X130627380Y-91150000D02*
X129627380Y-91150000D01*
X131782142Y-90721428D02*
X131829761Y-90673809D01*
X131877380Y-90530952D01*
X131877380Y-90435714D01*
X131829761Y-90292857D01*
X131734523Y-90197619D01*
X131639285Y-90150000D01*
X131448809Y-90102380D01*
X131305952Y-90102380D01*
X131115476Y-90150000D01*
X131020238Y-90197619D01*
X130925000Y-90292857D01*
X130877380Y-90435714D01*
X130877380Y-90530952D01*
X130925000Y-90673809D01*
X130972619Y-90721428D01*
X131877380Y-91150000D02*
X130877380Y-91150000D01*
%TO.C,C42*%
X63822857Y-101787142D02*
X63870476Y-101834761D01*
X64013333Y-101882380D01*
X64108571Y-101882380D01*
X64251428Y-101834761D01*
X64346666Y-101739523D01*
X64394285Y-101644285D01*
X64441904Y-101453809D01*
X64441904Y-101310952D01*
X64394285Y-101120476D01*
X64346666Y-101025238D01*
X64251428Y-100930000D01*
X64108571Y-100882380D01*
X64013333Y-100882380D01*
X63870476Y-100930000D01*
X63822857Y-100977619D01*
X62965714Y-101215714D02*
X62965714Y-101882380D01*
X63203809Y-100834761D02*
X63441904Y-101549047D01*
X62822857Y-101549047D01*
X62489523Y-100977619D02*
X62441904Y-100930000D01*
X62346666Y-100882380D01*
X62108571Y-100882380D01*
X62013333Y-100930000D01*
X61965714Y-100977619D01*
X61918095Y-101072857D01*
X61918095Y-101168095D01*
X61965714Y-101310952D01*
X62537142Y-101882380D01*
X61918095Y-101882380D01*
%TO.C,C41*%
X72002857Y-101787142D02*
X72050476Y-101834761D01*
X72193333Y-101882380D01*
X72288571Y-101882380D01*
X72431428Y-101834761D01*
X72526666Y-101739523D01*
X72574285Y-101644285D01*
X72621904Y-101453809D01*
X72621904Y-101310952D01*
X72574285Y-101120476D01*
X72526666Y-101025238D01*
X72431428Y-100930000D01*
X72288571Y-100882380D01*
X72193333Y-100882380D01*
X72050476Y-100930000D01*
X72002857Y-100977619D01*
X71145714Y-101215714D02*
X71145714Y-101882380D01*
X71383809Y-100834761D02*
X71621904Y-101549047D01*
X71002857Y-101549047D01*
X70098095Y-101882380D02*
X70669523Y-101882380D01*
X70383809Y-101882380D02*
X70383809Y-100882380D01*
X70479047Y-101025238D01*
X70574285Y-101120476D01*
X70669523Y-101168095D01*
%TO.C,C40*%
X80182857Y-101787142D02*
X80230476Y-101834761D01*
X80373333Y-101882380D01*
X80468571Y-101882380D01*
X80611428Y-101834761D01*
X80706666Y-101739523D01*
X80754285Y-101644285D01*
X80801904Y-101453809D01*
X80801904Y-101310952D01*
X80754285Y-101120476D01*
X80706666Y-101025238D01*
X80611428Y-100930000D01*
X80468571Y-100882380D01*
X80373333Y-100882380D01*
X80230476Y-100930000D01*
X80182857Y-100977619D01*
X79325714Y-101215714D02*
X79325714Y-101882380D01*
X79563809Y-100834761D02*
X79801904Y-101549047D01*
X79182857Y-101549047D01*
X78611428Y-100882380D02*
X78516190Y-100882380D01*
X78420952Y-100930000D01*
X78373333Y-100977619D01*
X78325714Y-101072857D01*
X78278095Y-101263333D01*
X78278095Y-101501428D01*
X78325714Y-101691904D01*
X78373333Y-101787142D01*
X78420952Y-101834761D01*
X78516190Y-101882380D01*
X78611428Y-101882380D01*
X78706666Y-101834761D01*
X78754285Y-101787142D01*
X78801904Y-101691904D01*
X78849523Y-101501428D01*
X78849523Y-101263333D01*
X78801904Y-101072857D01*
X78754285Y-100977619D01*
X78706666Y-100930000D01*
X78611428Y-100882380D01*
%TO.C,C39*%
X88362857Y-101787142D02*
X88410476Y-101834761D01*
X88553333Y-101882380D01*
X88648571Y-101882380D01*
X88791428Y-101834761D01*
X88886666Y-101739523D01*
X88934285Y-101644285D01*
X88981904Y-101453809D01*
X88981904Y-101310952D01*
X88934285Y-101120476D01*
X88886666Y-101025238D01*
X88791428Y-100930000D01*
X88648571Y-100882380D01*
X88553333Y-100882380D01*
X88410476Y-100930000D01*
X88362857Y-100977619D01*
X88029523Y-100882380D02*
X87410476Y-100882380D01*
X87743809Y-101263333D01*
X87600952Y-101263333D01*
X87505714Y-101310952D01*
X87458095Y-101358571D01*
X87410476Y-101453809D01*
X87410476Y-101691904D01*
X87458095Y-101787142D01*
X87505714Y-101834761D01*
X87600952Y-101882380D01*
X87886666Y-101882380D01*
X87981904Y-101834761D01*
X88029523Y-101787142D01*
X86934285Y-101882380D02*
X86743809Y-101882380D01*
X86648571Y-101834761D01*
X86600952Y-101787142D01*
X86505714Y-101644285D01*
X86458095Y-101453809D01*
X86458095Y-101072857D01*
X86505714Y-100977619D01*
X86553333Y-100930000D01*
X86648571Y-100882380D01*
X86839047Y-100882380D01*
X86934285Y-100930000D01*
X86981904Y-100977619D01*
X87029523Y-101072857D01*
X87029523Y-101310952D01*
X86981904Y-101406190D01*
X86934285Y-101453809D01*
X86839047Y-101501428D01*
X86648571Y-101501428D01*
X86553333Y-101453809D01*
X86505714Y-101406190D01*
X86458095Y-101310952D01*
%TO.C,C38*%
X96542857Y-101787142D02*
X96590476Y-101834761D01*
X96733333Y-101882380D01*
X96828571Y-101882380D01*
X96971428Y-101834761D01*
X97066666Y-101739523D01*
X97114285Y-101644285D01*
X97161904Y-101453809D01*
X97161904Y-101310952D01*
X97114285Y-101120476D01*
X97066666Y-101025238D01*
X96971428Y-100930000D01*
X96828571Y-100882380D01*
X96733333Y-100882380D01*
X96590476Y-100930000D01*
X96542857Y-100977619D01*
X96209523Y-100882380D02*
X95590476Y-100882380D01*
X95923809Y-101263333D01*
X95780952Y-101263333D01*
X95685714Y-101310952D01*
X95638095Y-101358571D01*
X95590476Y-101453809D01*
X95590476Y-101691904D01*
X95638095Y-101787142D01*
X95685714Y-101834761D01*
X95780952Y-101882380D01*
X96066666Y-101882380D01*
X96161904Y-101834761D01*
X96209523Y-101787142D01*
X95019047Y-101310952D02*
X95114285Y-101263333D01*
X95161904Y-101215714D01*
X95209523Y-101120476D01*
X95209523Y-101072857D01*
X95161904Y-100977619D01*
X95114285Y-100930000D01*
X95019047Y-100882380D01*
X94828571Y-100882380D01*
X94733333Y-100930000D01*
X94685714Y-100977619D01*
X94638095Y-101072857D01*
X94638095Y-101120476D01*
X94685714Y-101215714D01*
X94733333Y-101263333D01*
X94828571Y-101310952D01*
X95019047Y-101310952D01*
X95114285Y-101358571D01*
X95161904Y-101406190D01*
X95209523Y-101501428D01*
X95209523Y-101691904D01*
X95161904Y-101787142D01*
X95114285Y-101834761D01*
X95019047Y-101882380D01*
X94828571Y-101882380D01*
X94733333Y-101834761D01*
X94685714Y-101787142D01*
X94638095Y-101691904D01*
X94638095Y-101501428D01*
X94685714Y-101406190D01*
X94733333Y-101358571D01*
X94828571Y-101310952D01*
%TO.C,C37*%
X104722857Y-101787142D02*
X104770476Y-101834761D01*
X104913333Y-101882380D01*
X105008571Y-101882380D01*
X105151428Y-101834761D01*
X105246666Y-101739523D01*
X105294285Y-101644285D01*
X105341904Y-101453809D01*
X105341904Y-101310952D01*
X105294285Y-101120476D01*
X105246666Y-101025238D01*
X105151428Y-100930000D01*
X105008571Y-100882380D01*
X104913333Y-100882380D01*
X104770476Y-100930000D01*
X104722857Y-100977619D01*
X104389523Y-100882380D02*
X103770476Y-100882380D01*
X104103809Y-101263333D01*
X103960952Y-101263333D01*
X103865714Y-101310952D01*
X103818095Y-101358571D01*
X103770476Y-101453809D01*
X103770476Y-101691904D01*
X103818095Y-101787142D01*
X103865714Y-101834761D01*
X103960952Y-101882380D01*
X104246666Y-101882380D01*
X104341904Y-101834761D01*
X104389523Y-101787142D01*
X103437142Y-100882380D02*
X102770476Y-100882380D01*
X103199047Y-101882380D01*
%TO.C,C36*%
X112902857Y-101787142D02*
X112950476Y-101834761D01*
X113093333Y-101882380D01*
X113188571Y-101882380D01*
X113331428Y-101834761D01*
X113426666Y-101739523D01*
X113474285Y-101644285D01*
X113521904Y-101453809D01*
X113521904Y-101310952D01*
X113474285Y-101120476D01*
X113426666Y-101025238D01*
X113331428Y-100930000D01*
X113188571Y-100882380D01*
X113093333Y-100882380D01*
X112950476Y-100930000D01*
X112902857Y-100977619D01*
X112569523Y-100882380D02*
X111950476Y-100882380D01*
X112283809Y-101263333D01*
X112140952Y-101263333D01*
X112045714Y-101310952D01*
X111998095Y-101358571D01*
X111950476Y-101453809D01*
X111950476Y-101691904D01*
X111998095Y-101787142D01*
X112045714Y-101834761D01*
X112140952Y-101882380D01*
X112426666Y-101882380D01*
X112521904Y-101834761D01*
X112569523Y-101787142D01*
X111093333Y-100882380D02*
X111283809Y-100882380D01*
X111379047Y-100930000D01*
X111426666Y-100977619D01*
X111521904Y-101120476D01*
X111569523Y-101310952D01*
X111569523Y-101691904D01*
X111521904Y-101787142D01*
X111474285Y-101834761D01*
X111379047Y-101882380D01*
X111188571Y-101882380D01*
X111093333Y-101834761D01*
X111045714Y-101787142D01*
X110998095Y-101691904D01*
X110998095Y-101453809D01*
X111045714Y-101358571D01*
X111093333Y-101310952D01*
X111188571Y-101263333D01*
X111379047Y-101263333D01*
X111474285Y-101310952D01*
X111521904Y-101358571D01*
X111569523Y-101453809D01*
%TO.C,C35*%
X121082857Y-101787142D02*
X121130476Y-101834761D01*
X121273333Y-101882380D01*
X121368571Y-101882380D01*
X121511428Y-101834761D01*
X121606666Y-101739523D01*
X121654285Y-101644285D01*
X121701904Y-101453809D01*
X121701904Y-101310952D01*
X121654285Y-101120476D01*
X121606666Y-101025238D01*
X121511428Y-100930000D01*
X121368571Y-100882380D01*
X121273333Y-100882380D01*
X121130476Y-100930000D01*
X121082857Y-100977619D01*
X120749523Y-100882380D02*
X120130476Y-100882380D01*
X120463809Y-101263333D01*
X120320952Y-101263333D01*
X120225714Y-101310952D01*
X120178095Y-101358571D01*
X120130476Y-101453809D01*
X120130476Y-101691904D01*
X120178095Y-101787142D01*
X120225714Y-101834761D01*
X120320952Y-101882380D01*
X120606666Y-101882380D01*
X120701904Y-101834761D01*
X120749523Y-101787142D01*
X119225714Y-100882380D02*
X119701904Y-100882380D01*
X119749523Y-101358571D01*
X119701904Y-101310952D01*
X119606666Y-101263333D01*
X119368571Y-101263333D01*
X119273333Y-101310952D01*
X119225714Y-101358571D01*
X119178095Y-101453809D01*
X119178095Y-101691904D01*
X119225714Y-101787142D01*
X119273333Y-101834761D01*
X119368571Y-101882380D01*
X119606666Y-101882380D01*
X119701904Y-101834761D01*
X119749523Y-101787142D01*
%TO.C,C34*%
X129262857Y-101787142D02*
X129310476Y-101834761D01*
X129453333Y-101882380D01*
X129548571Y-101882380D01*
X129691428Y-101834761D01*
X129786666Y-101739523D01*
X129834285Y-101644285D01*
X129881904Y-101453809D01*
X129881904Y-101310952D01*
X129834285Y-101120476D01*
X129786666Y-101025238D01*
X129691428Y-100930000D01*
X129548571Y-100882380D01*
X129453333Y-100882380D01*
X129310476Y-100930000D01*
X129262857Y-100977619D01*
X128929523Y-100882380D02*
X128310476Y-100882380D01*
X128643809Y-101263333D01*
X128500952Y-101263333D01*
X128405714Y-101310952D01*
X128358095Y-101358571D01*
X128310476Y-101453809D01*
X128310476Y-101691904D01*
X128358095Y-101787142D01*
X128405714Y-101834761D01*
X128500952Y-101882380D01*
X128786666Y-101882380D01*
X128881904Y-101834761D01*
X128929523Y-101787142D01*
X127453333Y-101215714D02*
X127453333Y-101882380D01*
X127691428Y-100834761D02*
X127929523Y-101549047D01*
X127310476Y-101549047D01*
%TO.C,C33*%
X137442857Y-101787142D02*
X137490476Y-101834761D01*
X137633333Y-101882380D01*
X137728571Y-101882380D01*
X137871428Y-101834761D01*
X137966666Y-101739523D01*
X138014285Y-101644285D01*
X138061904Y-101453809D01*
X138061904Y-101310952D01*
X138014285Y-101120476D01*
X137966666Y-101025238D01*
X137871428Y-100930000D01*
X137728571Y-100882380D01*
X137633333Y-100882380D01*
X137490476Y-100930000D01*
X137442857Y-100977619D01*
X137109523Y-100882380D02*
X136490476Y-100882380D01*
X136823809Y-101263333D01*
X136680952Y-101263333D01*
X136585714Y-101310952D01*
X136538095Y-101358571D01*
X136490476Y-101453809D01*
X136490476Y-101691904D01*
X136538095Y-101787142D01*
X136585714Y-101834761D01*
X136680952Y-101882380D01*
X136966666Y-101882380D01*
X137061904Y-101834761D01*
X137109523Y-101787142D01*
X136157142Y-100882380D02*
X135538095Y-100882380D01*
X135871428Y-101263333D01*
X135728571Y-101263333D01*
X135633333Y-101310952D01*
X135585714Y-101358571D01*
X135538095Y-101453809D01*
X135538095Y-101691904D01*
X135585714Y-101787142D01*
X135633333Y-101834761D01*
X135728571Y-101882380D01*
X136014285Y-101882380D01*
X136109523Y-101834761D01*
X136157142Y-101787142D01*
%TO.C,C32*%
X143927142Y-99357142D02*
X143974761Y-99309523D01*
X144022380Y-99166666D01*
X144022380Y-99071428D01*
X143974761Y-98928571D01*
X143879523Y-98833333D01*
X143784285Y-98785714D01*
X143593809Y-98738095D01*
X143450952Y-98738095D01*
X143260476Y-98785714D01*
X143165238Y-98833333D01*
X143070000Y-98928571D01*
X143022380Y-99071428D01*
X143022380Y-99166666D01*
X143070000Y-99309523D01*
X143117619Y-99357142D01*
X143022380Y-99690476D02*
X143022380Y-100309523D01*
X143403333Y-99976190D01*
X143403333Y-100119047D01*
X143450952Y-100214285D01*
X143498571Y-100261904D01*
X143593809Y-100309523D01*
X143831904Y-100309523D01*
X143927142Y-100261904D01*
X143974761Y-100214285D01*
X144022380Y-100119047D01*
X144022380Y-99833333D01*
X143974761Y-99738095D01*
X143927142Y-99690476D01*
X143117619Y-100690476D02*
X143070000Y-100738095D01*
X143022380Y-100833333D01*
X143022380Y-101071428D01*
X143070000Y-101166666D01*
X143117619Y-101214285D01*
X143212857Y-101261904D01*
X143308095Y-101261904D01*
X143450952Y-101214285D01*
X144022380Y-100642857D01*
X144022380Y-101261904D01*
%TO.C,C31*%
X143208905Y-107938382D02*
X143264932Y-107901017D01*
X143339620Y-107770260D01*
X143358282Y-107676868D01*
X143339578Y-107527449D01*
X143264848Y-107415396D01*
X143180787Y-107350039D01*
X143003334Y-107266020D01*
X142863246Y-107238027D01*
X142667132Y-107247400D01*
X142564409Y-107275435D01*
X142452355Y-107350165D01*
X142377667Y-107480922D01*
X142359006Y-107574314D01*
X142377709Y-107723732D01*
X142415074Y-107779759D01*
X142256367Y-108087969D02*
X142135067Y-108695016D01*
X142573950Y-108442791D01*
X142545958Y-108582879D01*
X142573992Y-108685601D01*
X142611357Y-108741628D01*
X142695418Y-108806985D01*
X142928898Y-108853639D01*
X143031621Y-108825605D01*
X143087647Y-108788240D01*
X143153005Y-108704179D01*
X143208990Y-108424003D01*
X143180955Y-108321280D01*
X143143590Y-108265254D01*
X142929067Y-109824881D02*
X143041036Y-109264530D01*
X142985051Y-109544705D02*
X142004436Y-109348759D01*
X142163186Y-109283360D01*
X142275239Y-109208629D01*
X142340597Y-109124568D01*
%TO.C,C30*%
X140829819Y-116216513D02*
X140892037Y-116190741D01*
X140990700Y-116076982D01*
X141027146Y-115988993D01*
X141037821Y-115838787D01*
X140986278Y-115714353D01*
X140916513Y-115633912D01*
X140758759Y-115517026D01*
X140626776Y-115462357D01*
X140432576Y-115433459D01*
X140326364Y-115441007D01*
X140201930Y-115492550D01*
X140103266Y-115606310D01*
X140066820Y-115694298D01*
X140056146Y-115844504D01*
X140081917Y-115906721D01*
X139866367Y-116178235D02*
X139629468Y-116750160D01*
X140108983Y-116587985D01*
X140054314Y-116719968D01*
X140061862Y-116826179D01*
X140087633Y-116888396D01*
X140157399Y-116968837D01*
X140377370Y-117059952D01*
X140483582Y-117052404D01*
X140545799Y-117026632D01*
X140626239Y-116956867D01*
X140735578Y-116692901D01*
X140728029Y-116586690D01*
X140702258Y-116524472D01*
X139392569Y-117322086D02*
X139356123Y-117410074D01*
X139363671Y-117516286D01*
X139389442Y-117578503D01*
X139459207Y-117658944D01*
X139616962Y-117775830D01*
X139836933Y-117866945D01*
X140031133Y-117895843D01*
X140137344Y-117888295D01*
X140199562Y-117862523D01*
X140280002Y-117792758D01*
X140316448Y-117704769D01*
X140308900Y-117598558D01*
X140283129Y-117536341D01*
X140213363Y-117455900D01*
X140055609Y-117339014D01*
X139835638Y-117247899D01*
X139641438Y-117219001D01*
X139535226Y-117226549D01*
X139473009Y-117252320D01*
X139392569Y-117322086D01*
%TO.C,C29*%
X136882090Y-123869969D02*
X136948151Y-123856889D01*
X137067193Y-123764667D01*
X137120173Y-123685526D01*
X137160073Y-123540323D01*
X137133913Y-123408201D01*
X137081261Y-123315650D01*
X136949469Y-123170118D01*
X136830757Y-123090648D01*
X136645984Y-123024257D01*
X136540352Y-123010847D01*
X136408230Y-123037008D01*
X136289189Y-123129230D01*
X136236208Y-123208371D01*
X136196308Y-123353574D01*
X136209389Y-123419635D01*
X135997466Y-123736200D02*
X135931405Y-123749281D01*
X135838854Y-123801932D01*
X135706403Y-123999785D01*
X135692993Y-124105417D01*
X135706073Y-124171478D01*
X135758725Y-124264029D01*
X135837866Y-124317010D01*
X135983068Y-124356910D01*
X136775800Y-124199945D01*
X136431426Y-124714364D01*
X136166524Y-125110070D02*
X136060563Y-125268353D01*
X135968011Y-125321004D01*
X135901950Y-125334085D01*
X135730258Y-125333755D01*
X135545485Y-125267365D01*
X135228919Y-125055443D01*
X135176268Y-124962892D01*
X135163188Y-124896831D01*
X135176598Y-124791199D01*
X135282559Y-124632916D01*
X135375110Y-124580265D01*
X135441171Y-124567185D01*
X135546802Y-124580594D01*
X135744656Y-124713046D01*
X135797307Y-124805597D01*
X135810387Y-124871658D01*
X135796978Y-124977290D01*
X135691017Y-125135572D01*
X135598465Y-125188224D01*
X135532404Y-125201304D01*
X135426773Y-125187894D01*
%TO.C,C28*%
X131515943Y-130606806D02*
X131583287Y-130606806D01*
X131717974Y-130539462D01*
X131785317Y-130472119D01*
X131852661Y-130337432D01*
X131852661Y-130202745D01*
X131818989Y-130101730D01*
X131717974Y-129933371D01*
X131616959Y-129832356D01*
X131448600Y-129731340D01*
X131347585Y-129697669D01*
X131212898Y-129697669D01*
X131078211Y-129765012D01*
X131010867Y-129832356D01*
X130943524Y-129967043D01*
X130943524Y-130034386D01*
X130674149Y-130303760D02*
X130606806Y-130303760D01*
X130505791Y-130337432D01*
X130337432Y-130505791D01*
X130303760Y-130606806D01*
X130303760Y-130674149D01*
X130337432Y-130775165D01*
X130404775Y-130842508D01*
X130539462Y-130909852D01*
X131347585Y-130909852D01*
X130909852Y-131347585D01*
X130101730Y-131347585D02*
X130135401Y-131246569D01*
X130135401Y-131179226D01*
X130101730Y-131078211D01*
X130068058Y-131044539D01*
X129967043Y-131010867D01*
X129899699Y-131010867D01*
X129798684Y-131044539D01*
X129663997Y-131179226D01*
X129630325Y-131280241D01*
X129630325Y-131347585D01*
X129663997Y-131448600D01*
X129697669Y-131482272D01*
X129798684Y-131515943D01*
X129866027Y-131515943D01*
X129967043Y-131482272D01*
X130101730Y-131347585D01*
X130202745Y-131313913D01*
X130270088Y-131313913D01*
X130371104Y-131347585D01*
X130505791Y-131482272D01*
X130539462Y-131583287D01*
X130539462Y-131650630D01*
X130505791Y-131751646D01*
X130371104Y-131886333D01*
X130270088Y-131920004D01*
X130202745Y-131920004D01*
X130101730Y-131886333D01*
X129967043Y-131751646D01*
X129933371Y-131650630D01*
X129933371Y-131583287D01*
X129967043Y-131482272D01*
%TO.C,C27*%
X124940558Y-136166746D02*
X125006596Y-136179942D01*
X125151868Y-136140295D01*
X125231101Y-136087453D01*
X125323531Y-135968573D01*
X125349922Y-135836497D01*
X125336697Y-135730842D01*
X125270629Y-135545953D01*
X125191365Y-135427103D01*
X125046064Y-135295056D01*
X124953605Y-135242244D01*
X124821529Y-135215852D01*
X124676257Y-135255499D01*
X124597023Y-135308341D01*
X124504594Y-135427222D01*
X124491398Y-135493260D01*
X124174463Y-135704629D02*
X124108425Y-135691433D01*
X124002770Y-135704659D01*
X123804686Y-135836764D01*
X123751873Y-135929224D01*
X123738678Y-135995262D01*
X123751903Y-136100917D01*
X123804745Y-136180150D01*
X123923626Y-136272580D01*
X124716082Y-136430928D01*
X124201063Y-136774403D01*
X123368900Y-136127397D02*
X122814264Y-136497294D01*
X123725661Y-137091457D01*
%TO.C,C26*%
X117404358Y-140337798D02*
X117466575Y-140363569D01*
X117616781Y-140352894D01*
X117704769Y-140316448D01*
X117818529Y-140217785D01*
X117870072Y-140093350D01*
X117877620Y-139987139D01*
X117848722Y-139792939D01*
X117794053Y-139660956D01*
X117677167Y-139503202D01*
X117596726Y-139433436D01*
X117472292Y-139381894D01*
X117322086Y-139392569D01*
X117234097Y-139429015D01*
X117120338Y-139527678D01*
X117094566Y-139589895D01*
X116742612Y-139735679D02*
X116680395Y-139709908D01*
X116574183Y-139702360D01*
X116354212Y-139793475D01*
X116284447Y-139873915D01*
X116258675Y-139936133D01*
X116251127Y-140042344D01*
X116287573Y-140130333D01*
X116386236Y-140244092D01*
X117132844Y-140553347D01*
X116560918Y-140790247D01*
X115386338Y-140194381D02*
X115562315Y-140121489D01*
X115668527Y-140129038D01*
X115730744Y-140154809D01*
X115873402Y-140250346D01*
X115990288Y-140408100D01*
X116136072Y-140760054D01*
X116128524Y-140866265D01*
X116102753Y-140928483D01*
X116032987Y-141008923D01*
X115857010Y-141081815D01*
X115750799Y-141074267D01*
X115688581Y-141048496D01*
X115608141Y-140978730D01*
X115517026Y-140758759D01*
X115524574Y-140652547D01*
X115550345Y-140590330D01*
X115620111Y-140509890D01*
X115796088Y-140436997D01*
X115902300Y-140444546D01*
X115964517Y-140470317D01*
X116044957Y-140540082D01*
%TO.C,C25*%
X109201228Y-142957710D02*
X109257189Y-142995173D01*
X109406575Y-143014137D01*
X109499999Y-142995638D01*
X109630887Y-142921179D01*
X109705812Y-142809256D01*
X109734026Y-142706582D01*
X109743741Y-142510484D01*
X109715993Y-142370348D01*
X109632284Y-142192749D01*
X109567074Y-142108573D01*
X109455151Y-142033648D01*
X109305765Y-142014683D01*
X109212341Y-142033182D01*
X109081454Y-142107642D01*
X109043991Y-142163603D01*
X108670293Y-142237597D02*
X108614332Y-142200134D01*
X108511658Y-142171921D01*
X108278098Y-142218167D01*
X108193923Y-142283378D01*
X108156460Y-142339339D01*
X108128246Y-142442013D01*
X108146745Y-142535437D01*
X108221205Y-142666324D01*
X108892741Y-143115879D01*
X108285483Y-143236119D01*
X107203718Y-142430900D02*
X107670840Y-142338407D01*
X107810044Y-142796279D01*
X107754083Y-142758817D01*
X107651409Y-142730603D01*
X107417849Y-142776849D01*
X107333674Y-142842060D01*
X107296211Y-142898021D01*
X107267997Y-143000695D01*
X107314243Y-143234256D01*
X107379454Y-143318431D01*
X107435415Y-143355894D01*
X107538089Y-143384107D01*
X107771650Y-143337861D01*
X107855825Y-143272650D01*
X107893288Y-143216689D01*
%TO.C,C24*%
X100642857Y-143927142D02*
X100690476Y-143974761D01*
X100833333Y-144022380D01*
X100928571Y-144022380D01*
X101071428Y-143974761D01*
X101166666Y-143879523D01*
X101214285Y-143784285D01*
X101261904Y-143593809D01*
X101261904Y-143450952D01*
X101214285Y-143260476D01*
X101166666Y-143165238D01*
X101071428Y-143070000D01*
X100928571Y-143022380D01*
X100833333Y-143022380D01*
X100690476Y-143070000D01*
X100642857Y-143117619D01*
X100261904Y-143117619D02*
X100214285Y-143070000D01*
X100119047Y-143022380D01*
X99880952Y-143022380D01*
X99785714Y-143070000D01*
X99738095Y-143117619D01*
X99690476Y-143212857D01*
X99690476Y-143308095D01*
X99738095Y-143450952D01*
X100309523Y-144022380D01*
X99690476Y-144022380D01*
X98833333Y-143355714D02*
X98833333Y-144022380D01*
X99071428Y-142974761D02*
X99309523Y-143689047D01*
X98690476Y-143689047D01*
%TO.C,C23*%
X92061617Y-143208905D02*
X92098982Y-143264932D01*
X92229739Y-143339620D01*
X92323131Y-143358282D01*
X92472550Y-143339578D01*
X92584603Y-143264848D01*
X92649960Y-143180787D01*
X92733979Y-143003334D01*
X92761972Y-142863246D01*
X92752599Y-142667132D01*
X92724564Y-142564409D01*
X92649834Y-142452355D01*
X92519077Y-142377667D01*
X92425685Y-142359006D01*
X92276267Y-142377709D01*
X92220240Y-142415074D01*
X91846672Y-142340428D02*
X91809307Y-142284402D01*
X91725246Y-142219044D01*
X91491767Y-142172390D01*
X91389044Y-142200425D01*
X91333017Y-142237790D01*
X91267660Y-142321851D01*
X91248998Y-142415243D01*
X91267702Y-142564661D01*
X91716084Y-143236982D01*
X91109037Y-143115682D01*
X90978111Y-142069752D02*
X90371064Y-141948452D01*
X90623289Y-142387335D01*
X90483202Y-142359342D01*
X90380479Y-142387377D01*
X90324452Y-142424742D01*
X90259095Y-142508803D01*
X90212441Y-142742283D01*
X90240475Y-142845005D01*
X90277841Y-142901032D01*
X90361902Y-142966390D01*
X90642077Y-143022374D01*
X90744800Y-142994340D01*
X90800827Y-142956975D01*
%TO.C,C22*%
X83783486Y-140829819D02*
X83809258Y-140892037D01*
X83923017Y-140990700D01*
X84011006Y-141027146D01*
X84161212Y-141037821D01*
X84285646Y-140986278D01*
X84366087Y-140916513D01*
X84482973Y-140758759D01*
X84537642Y-140626776D01*
X84566540Y-140432576D01*
X84558992Y-140326364D01*
X84507449Y-140201930D01*
X84393689Y-140103266D01*
X84305701Y-140066820D01*
X84155495Y-140056146D01*
X84093278Y-140081917D01*
X83741324Y-139936133D02*
X83715552Y-139873915D01*
X83645787Y-139793475D01*
X83425816Y-139702360D01*
X83319604Y-139709908D01*
X83257387Y-139735679D01*
X83176946Y-139805445D01*
X83140500Y-139893433D01*
X83129826Y-140043639D01*
X83439081Y-140790247D01*
X82867155Y-140553347D01*
X82861438Y-139571672D02*
X82835667Y-139509455D01*
X82765902Y-139429015D01*
X82545930Y-139337900D01*
X82439719Y-139345448D01*
X82377501Y-139371219D01*
X82297061Y-139440984D01*
X82260615Y-139528973D01*
X82249940Y-139679179D01*
X82559195Y-140425786D01*
X81987270Y-140188887D01*
%TO.C,C21*%
X76130030Y-136882090D02*
X76143110Y-136948151D01*
X76235332Y-137067193D01*
X76314473Y-137120173D01*
X76459676Y-137160073D01*
X76591798Y-137133913D01*
X76684349Y-137081261D01*
X76829881Y-136949469D01*
X76909351Y-136830757D01*
X76975742Y-136645984D01*
X76989152Y-136540352D01*
X76962991Y-136408230D01*
X76870769Y-136289189D01*
X76791628Y-136236208D01*
X76646425Y-136196308D01*
X76580364Y-136209389D01*
X76263799Y-135997466D02*
X76250718Y-135931405D01*
X76198067Y-135838854D01*
X76000214Y-135706403D01*
X75894582Y-135692993D01*
X75828521Y-135706073D01*
X75735970Y-135758725D01*
X75682989Y-135837866D01*
X75643089Y-135983068D01*
X75800054Y-136775800D01*
X75285635Y-136431426D01*
X74494222Y-135901621D02*
X74969070Y-136219504D01*
X74731646Y-136060563D02*
X75287941Y-135229578D01*
X75287612Y-135401271D01*
X75313773Y-135533393D01*
X75366424Y-135625944D01*
%TO.C,C20*%
X69393193Y-131515943D02*
X69393193Y-131583287D01*
X69460537Y-131717974D01*
X69527880Y-131785317D01*
X69662567Y-131852661D01*
X69797254Y-131852661D01*
X69898269Y-131818989D01*
X70066628Y-131717974D01*
X70167643Y-131616959D01*
X70268659Y-131448600D01*
X70302330Y-131347585D01*
X70302330Y-131212898D01*
X70234987Y-131078211D01*
X70167643Y-131010867D01*
X70032956Y-130943524D01*
X69965613Y-130943524D01*
X69696239Y-130674149D02*
X69696239Y-130606806D01*
X69662567Y-130505791D01*
X69494208Y-130337432D01*
X69393193Y-130303760D01*
X69325850Y-130303760D01*
X69224834Y-130337432D01*
X69157491Y-130404775D01*
X69090147Y-130539462D01*
X69090147Y-131347585D01*
X68652414Y-130909852D01*
X68921788Y-129765012D02*
X68854445Y-129697669D01*
X68753430Y-129663997D01*
X68686086Y-129663997D01*
X68585071Y-129697669D01*
X68416712Y-129798684D01*
X68248353Y-129967043D01*
X68147338Y-130135401D01*
X68113666Y-130236417D01*
X68113666Y-130303760D01*
X68147338Y-130404775D01*
X68214682Y-130472119D01*
X68315697Y-130505791D01*
X68383040Y-130505791D01*
X68484056Y-130472119D01*
X68652414Y-130371104D01*
X68820773Y-130202745D01*
X68921788Y-130034386D01*
X68955460Y-129933371D01*
X68955460Y-129866027D01*
X68921788Y-129765012D01*
%TO.C,C19*%
X63833253Y-124940558D02*
X63820057Y-125006596D01*
X63859704Y-125151868D01*
X63912546Y-125231101D01*
X64031426Y-125323531D01*
X64163502Y-125349922D01*
X64269157Y-125336697D01*
X64454046Y-125270629D01*
X64572896Y-125191365D01*
X64704943Y-125046064D01*
X64757755Y-124953605D01*
X64784147Y-124821529D01*
X64744500Y-124676257D01*
X64691658Y-124597023D01*
X64572777Y-124504594D01*
X64506739Y-124491398D01*
X63225596Y-124201063D02*
X63542650Y-124676465D01*
X63384123Y-124438764D02*
X64216077Y-123883920D01*
X64150069Y-124042417D01*
X64123677Y-124174493D01*
X64136903Y-124280148D01*
X62961384Y-123804894D02*
X62855699Y-123646427D01*
X62842474Y-123540772D01*
X62855670Y-123474734D01*
X62921678Y-123316237D01*
X63053724Y-123170935D01*
X63370659Y-122959566D01*
X63476314Y-122946340D01*
X63542352Y-122959536D01*
X63634811Y-123012349D01*
X63740496Y-123170816D01*
X63753721Y-123276471D01*
X63740526Y-123342509D01*
X63687713Y-123434968D01*
X63489629Y-123567074D01*
X63383974Y-123580300D01*
X63317936Y-123567104D01*
X63225477Y-123514291D01*
X63119792Y-123355824D01*
X63106567Y-123250169D01*
X63119762Y-123184131D01*
X63172575Y-123091672D01*
%TO.C,C18*%
X59662201Y-117404358D02*
X59636430Y-117466575D01*
X59647105Y-117616781D01*
X59683551Y-117704769D01*
X59782214Y-117818529D01*
X59906649Y-117870072D01*
X60012860Y-117877620D01*
X60207060Y-117848722D01*
X60339043Y-117794053D01*
X60496797Y-117677167D01*
X60566563Y-117596726D01*
X60618105Y-117472292D01*
X60607430Y-117322086D01*
X60570984Y-117234097D01*
X60472321Y-117120338D01*
X60410104Y-117094566D01*
X59209752Y-116560918D02*
X59428429Y-117088850D01*
X59319090Y-116824884D02*
X60242970Y-116442201D01*
X60147433Y-116584858D01*
X60095891Y-116709293D01*
X60088343Y-116815504D01*
X59519007Y-115814311D02*
X59599448Y-115884077D01*
X59661665Y-115909848D01*
X59767876Y-115917396D01*
X59811871Y-115899173D01*
X59881636Y-115818733D01*
X59907407Y-115756515D01*
X59914956Y-115650304D01*
X59842064Y-115474327D01*
X59761623Y-115404561D01*
X59699406Y-115378790D01*
X59593194Y-115371242D01*
X59549200Y-115389465D01*
X59479435Y-115469905D01*
X59453663Y-115532122D01*
X59446115Y-115638334D01*
X59519007Y-115814311D01*
X59511459Y-115920523D01*
X59485688Y-115982740D01*
X59415922Y-116063180D01*
X59239945Y-116136072D01*
X59133734Y-116128524D01*
X59071516Y-116102753D01*
X58991076Y-116032987D01*
X58918184Y-115857010D01*
X58925732Y-115750799D01*
X58951503Y-115688581D01*
X59021269Y-115608141D01*
X59197246Y-115535249D01*
X59303458Y-115542797D01*
X59365675Y-115568569D01*
X59446115Y-115638334D01*
%TO.C,C17*%
X57042289Y-109201228D02*
X57004826Y-109257189D01*
X56985862Y-109406575D01*
X57004361Y-109499999D01*
X57078820Y-109630887D01*
X57190743Y-109705812D01*
X57293417Y-109734026D01*
X57489515Y-109743741D01*
X57629651Y-109715993D01*
X57807250Y-109632284D01*
X57891426Y-109567074D01*
X57966351Y-109455151D01*
X57985316Y-109305765D01*
X57966817Y-109212341D01*
X57892357Y-109081454D01*
X57836396Y-109043991D01*
X56763880Y-108285483D02*
X56874871Y-108846029D01*
X56819375Y-108565756D02*
X57800331Y-108371522D01*
X57678693Y-108492694D01*
X57603767Y-108604617D01*
X57575553Y-108707290D01*
X57680090Y-107764264D02*
X57550601Y-107110294D01*
X56652889Y-107724938D01*
%TO.C,C16*%
X56787142Y-99357142D02*
X56834761Y-99309523D01*
X56882380Y-99166666D01*
X56882380Y-99071428D01*
X56834761Y-98928571D01*
X56739523Y-98833333D01*
X56644285Y-98785714D01*
X56453809Y-98738095D01*
X56310952Y-98738095D01*
X56120476Y-98785714D01*
X56025238Y-98833333D01*
X55930000Y-98928571D01*
X55882380Y-99071428D01*
X55882380Y-99166666D01*
X55930000Y-99309523D01*
X55977619Y-99357142D01*
X56882380Y-100309523D02*
X56882380Y-99738095D01*
X56882380Y-100023809D02*
X55882380Y-100023809D01*
X56025238Y-99928571D01*
X56120476Y-99833333D01*
X56168095Y-99738095D01*
X55882380Y-101166666D02*
X55882380Y-100976190D01*
X55930000Y-100880952D01*
X55977619Y-100833333D01*
X56120476Y-100738095D01*
X56310952Y-100690476D01*
X56691904Y-100690476D01*
X56787142Y-100738095D01*
X56834761Y-100785714D01*
X56882380Y-100880952D01*
X56882380Y-101071428D01*
X56834761Y-101166666D01*
X56787142Y-101214285D01*
X56691904Y-101261904D01*
X56453809Y-101261904D01*
X56358571Y-101214285D01*
X56310952Y-101166666D01*
X56263333Y-101071428D01*
X56263333Y-100880952D01*
X56310952Y-100785714D01*
X56358571Y-100738095D01*
X56453809Y-100690476D01*
%TO.C,C15*%
X57743463Y-90940788D02*
X57799490Y-90903423D01*
X57874178Y-90772666D01*
X57892840Y-90679274D01*
X57874136Y-90529855D01*
X57799406Y-90417802D01*
X57715345Y-90352445D01*
X57537892Y-90268426D01*
X57397804Y-90240433D01*
X57201690Y-90249806D01*
X57098967Y-90277841D01*
X56986913Y-90352571D01*
X56912225Y-90483328D01*
X56893564Y-90576720D01*
X56912267Y-90726138D01*
X56949632Y-90782165D01*
X57650240Y-91893368D02*
X57762209Y-91333017D01*
X57706225Y-91613193D02*
X56725610Y-91417247D01*
X56884359Y-91351847D01*
X56996413Y-91277117D01*
X57061770Y-91193056D01*
X56492341Y-92584645D02*
X56585648Y-92117686D01*
X57061938Y-92164297D01*
X57005912Y-92201663D01*
X56940554Y-92285724D01*
X56893900Y-92519203D01*
X56921935Y-92621926D01*
X56959300Y-92677953D01*
X57043361Y-92743310D01*
X57276841Y-92789964D01*
X57379563Y-92761930D01*
X57435590Y-92724564D01*
X57500948Y-92640503D01*
X57547601Y-92407024D01*
X57519567Y-92304301D01*
X57482202Y-92248274D01*
%TO.C,C14*%
X60322115Y-82868987D02*
X60384333Y-82843215D01*
X60482996Y-82729456D01*
X60519442Y-82641467D01*
X60530117Y-82491261D01*
X60478574Y-82366827D01*
X60408809Y-82286386D01*
X60251055Y-82169500D01*
X60119072Y-82114831D01*
X59924872Y-82085933D01*
X59818660Y-82093481D01*
X59694226Y-82145024D01*
X59595562Y-82258784D01*
X59559116Y-82346772D01*
X59548442Y-82496978D01*
X59574213Y-82559195D01*
X60045643Y-83785318D02*
X60264320Y-83257387D01*
X60154981Y-83521352D02*
X59231102Y-83138669D01*
X59399531Y-83105349D01*
X59523965Y-83053807D01*
X59604406Y-82984041D01*
X59101709Y-84322092D02*
X59717629Y-84577215D01*
X58840870Y-83956337D02*
X59591899Y-84009711D01*
X59355000Y-84581636D01*
%TO.C,C13*%
X64426706Y-75458975D02*
X64492767Y-75445895D01*
X64611809Y-75353673D01*
X64664789Y-75274532D01*
X64704689Y-75129329D01*
X64678529Y-74997207D01*
X64625877Y-74904656D01*
X64494085Y-74759124D01*
X64375373Y-74679654D01*
X64190600Y-74613263D01*
X64084968Y-74599853D01*
X63952846Y-74626014D01*
X63833805Y-74718236D01*
X63780824Y-74797377D01*
X63740924Y-74942580D01*
X63754005Y-75008641D01*
X63976042Y-76303370D02*
X64293926Y-75828521D01*
X64134984Y-76065945D02*
X63303999Y-75509650D01*
X63475692Y-75509979D01*
X63607814Y-75483818D01*
X63700365Y-75431167D01*
X62959626Y-76024069D02*
X62615252Y-76538488D01*
X63117250Y-76473415D01*
X63037779Y-76592127D01*
X63024369Y-76697759D01*
X63037450Y-76763820D01*
X63090101Y-76856371D01*
X63287954Y-76988822D01*
X63393586Y-77002232D01*
X63459647Y-76989152D01*
X63552198Y-76936501D01*
X63711140Y-76699076D01*
X63724549Y-76593445D01*
X63711469Y-76527384D01*
%TO.C,C12*%
X69898269Y-68989132D02*
X69965613Y-68989132D01*
X70100300Y-68921788D01*
X70167643Y-68854445D01*
X70234987Y-68719758D01*
X70234987Y-68585071D01*
X70201315Y-68484056D01*
X70100300Y-68315697D01*
X69999285Y-68214682D01*
X69830926Y-68113666D01*
X69729911Y-68079995D01*
X69595224Y-68079995D01*
X69460537Y-68147338D01*
X69393193Y-68214682D01*
X69325850Y-68349369D01*
X69325850Y-68416712D01*
X69292178Y-69729911D02*
X69696239Y-69325850D01*
X69494208Y-69527880D02*
X68787101Y-68820773D01*
X68955460Y-68854445D01*
X69090147Y-68854445D01*
X69191163Y-68820773D01*
X68383040Y-69359521D02*
X68315697Y-69359521D01*
X68214682Y-69393193D01*
X68046323Y-69561552D01*
X68012651Y-69662567D01*
X68012651Y-69729911D01*
X68046323Y-69830926D01*
X68113666Y-69898269D01*
X68248353Y-69965613D01*
X69056475Y-69965613D01*
X68618743Y-70403346D01*
%TO.C,C11*%
X76516414Y-63714134D02*
X76582452Y-63727330D01*
X76727724Y-63687683D01*
X76806957Y-63634841D01*
X76899387Y-63515961D01*
X76925778Y-63383885D01*
X76912553Y-63278230D01*
X76846485Y-63093341D01*
X76767221Y-62974491D01*
X76621920Y-62842444D01*
X76529461Y-62789632D01*
X76397385Y-62763240D01*
X76252113Y-62802887D01*
X76172879Y-62855729D01*
X76080450Y-62974610D01*
X76067254Y-63040648D01*
X75776919Y-64321791D02*
X76252321Y-64004737D01*
X76014620Y-64163264D02*
X75459776Y-63331310D01*
X75618273Y-63397318D01*
X75750349Y-63423710D01*
X75856004Y-63410484D01*
X74984582Y-64850215D02*
X75459984Y-64533161D01*
X75222283Y-64691688D02*
X74667438Y-63859733D01*
X74825936Y-63925742D01*
X74958012Y-63952133D01*
X75063667Y-63938908D01*
%TO.C,C10*%
X84056832Y-59830094D02*
X84119049Y-59855865D01*
X84269255Y-59845190D01*
X84357243Y-59808744D01*
X84471003Y-59710081D01*
X84522546Y-59585646D01*
X84530094Y-59479435D01*
X84501196Y-59285235D01*
X84446527Y-59153252D01*
X84329641Y-58995498D01*
X84249200Y-58925732D01*
X84124766Y-58874190D01*
X83974560Y-58884865D01*
X83886571Y-58921311D01*
X83772812Y-59019974D01*
X83747040Y-59082191D01*
X83213392Y-60282543D02*
X83741324Y-60063866D01*
X83477358Y-60173205D02*
X83094675Y-59249325D01*
X83237332Y-59344862D01*
X83361767Y-59396404D01*
X83467978Y-59403952D01*
X82258784Y-59595562D02*
X82170795Y-59632008D01*
X82101030Y-59712449D01*
X82075258Y-59774666D01*
X82067710Y-59880878D01*
X82096608Y-60075078D01*
X82187723Y-60295049D01*
X82304609Y-60452803D01*
X82385050Y-60522568D01*
X82447267Y-60548340D01*
X82553479Y-60555888D01*
X82641467Y-60519442D01*
X82711233Y-60439002D01*
X82737004Y-60376784D01*
X82744552Y-60270573D01*
X82715654Y-60076373D01*
X82624539Y-59856401D01*
X82507653Y-59698647D01*
X82427212Y-59628882D01*
X82364995Y-59603111D01*
X82258784Y-59595562D01*
%TO.C,C9*%
X91731616Y-57585734D02*
X91787578Y-57623197D01*
X91936964Y-57642162D01*
X92030388Y-57623663D01*
X92161275Y-57549203D01*
X92236201Y-57437280D01*
X92264414Y-57334607D01*
X92274130Y-57138509D01*
X92246382Y-56998372D01*
X92162673Y-56820773D01*
X92097462Y-56736598D01*
X91985539Y-56661672D01*
X91836153Y-56642708D01*
X91742729Y-56661206D01*
X91611842Y-56735666D01*
X91574379Y-56791628D01*
X91282993Y-57771651D02*
X91096145Y-57808648D01*
X90993471Y-57780434D01*
X90937510Y-57742972D01*
X90816338Y-57621334D01*
X90732629Y-57443734D01*
X90658635Y-57070037D01*
X90686848Y-56967364D01*
X90724311Y-56911402D01*
X90808486Y-56846191D01*
X90995335Y-56809194D01*
X91098008Y-56837408D01*
X91153970Y-56874871D01*
X91219180Y-56959046D01*
X91265427Y-57192607D01*
X91237213Y-57295280D01*
X91199750Y-57351242D01*
X91115575Y-57416452D01*
X90928727Y-57453449D01*
X90826053Y-57425236D01*
X90770092Y-57387773D01*
X90704881Y-57303598D01*
%TO.C,C8*%
X100166666Y-56787142D02*
X100214285Y-56834761D01*
X100357142Y-56882380D01*
X100452380Y-56882380D01*
X100595238Y-56834761D01*
X100690476Y-56739523D01*
X100738095Y-56644285D01*
X100785714Y-56453809D01*
X100785714Y-56310952D01*
X100738095Y-56120476D01*
X100690476Y-56025238D01*
X100595238Y-55930000D01*
X100452380Y-55882380D01*
X100357142Y-55882380D01*
X100214285Y-55930000D01*
X100166666Y-55977619D01*
X99595238Y-56310952D02*
X99690476Y-56263333D01*
X99738095Y-56215714D01*
X99785714Y-56120476D01*
X99785714Y-56072857D01*
X99738095Y-55977619D01*
X99690476Y-55930000D01*
X99595238Y-55882380D01*
X99404761Y-55882380D01*
X99309523Y-55930000D01*
X99261904Y-55977619D01*
X99214285Y-56072857D01*
X99214285Y-56120476D01*
X99261904Y-56215714D01*
X99309523Y-56263333D01*
X99404761Y-56310952D01*
X99595238Y-56310952D01*
X99690476Y-56358571D01*
X99738095Y-56406190D01*
X99785714Y-56501428D01*
X99785714Y-56691904D01*
X99738095Y-56787142D01*
X99690476Y-56834761D01*
X99595238Y-56882380D01*
X99404761Y-56882380D01*
X99309523Y-56834761D01*
X99261904Y-56787142D01*
X99214285Y-56691904D01*
X99214285Y-56501428D01*
X99261904Y-56406190D01*
X99309523Y-56358571D01*
X99404761Y-56310952D01*
%TO.C,C7*%
X108592252Y-57650156D02*
X108629617Y-57706182D01*
X108760374Y-57780871D01*
X108853766Y-57799532D01*
X109003184Y-57780829D01*
X109115238Y-57706098D01*
X109180595Y-57622037D01*
X109264614Y-57444584D01*
X109292606Y-57304496D01*
X109283234Y-57108382D01*
X109255199Y-57005659D01*
X109180469Y-56893606D01*
X109049712Y-56818918D01*
X108956320Y-56800256D01*
X108806901Y-56818960D01*
X108750875Y-56856325D01*
X108442665Y-56697618D02*
X107788921Y-56566987D01*
X108013239Y-57631578D01*
%TO.C,C6*%
X116691070Y-60139885D02*
X116716841Y-60202102D01*
X116830601Y-60300766D01*
X116918589Y-60337212D01*
X117068795Y-60347886D01*
X117193230Y-60296344D01*
X117273670Y-60226579D01*
X117390556Y-60068824D01*
X117445225Y-59936842D01*
X117474123Y-59742642D01*
X117466575Y-59636430D01*
X117415033Y-59511995D01*
X117301273Y-59413332D01*
X117213284Y-59376886D01*
X117063078Y-59366211D01*
X117000861Y-59391983D01*
X116245410Y-58975980D02*
X116421387Y-59048872D01*
X116491153Y-59129312D01*
X116516924Y-59191529D01*
X116550244Y-59359958D01*
X116521346Y-59554158D01*
X116375562Y-59906112D01*
X116295121Y-59975878D01*
X116232904Y-60001649D01*
X116126693Y-60009197D01*
X115950716Y-59936305D01*
X115880950Y-59855865D01*
X115855179Y-59793648D01*
X115847631Y-59687436D01*
X115938746Y-59467465D01*
X116019186Y-59397699D01*
X116081403Y-59371928D01*
X116187615Y-59364380D01*
X116363592Y-59437272D01*
X116433357Y-59517712D01*
X116459129Y-59579929D01*
X116466677Y-59686141D01*
%TO.C,C5*%
X124145317Y-64161804D02*
X124158397Y-64227865D01*
X124250619Y-64346906D01*
X124329761Y-64399887D01*
X124474963Y-64439787D01*
X124607085Y-64413626D01*
X124699636Y-64360975D01*
X124845168Y-64229182D01*
X124924639Y-64110470D01*
X124991029Y-63925697D01*
X125004439Y-63820066D01*
X124978278Y-63687944D01*
X124886056Y-63568902D01*
X124806915Y-63515922D01*
X124661712Y-63476021D01*
X124595651Y-63489102D01*
X123896789Y-62906645D02*
X124292496Y-63171548D01*
X124067164Y-63593745D01*
X124054083Y-63527684D01*
X124001432Y-63435133D01*
X123803579Y-63302682D01*
X123697947Y-63289272D01*
X123631886Y-63302352D01*
X123539335Y-63355003D01*
X123406884Y-63552857D01*
X123393474Y-63658489D01*
X123406554Y-63724549D01*
X123459205Y-63817101D01*
X123657059Y-63949552D01*
X123762690Y-63962962D01*
X123828751Y-63949881D01*
%TO.C,C4*%
X130674149Y-69561552D02*
X130674149Y-69628895D01*
X130741493Y-69763582D01*
X130808837Y-69830926D01*
X130943524Y-69898269D01*
X131078211Y-69898269D01*
X131179226Y-69864598D01*
X131347585Y-69763582D01*
X131448600Y-69662567D01*
X131549615Y-69494208D01*
X131583287Y-69393193D01*
X131583287Y-69258506D01*
X131515943Y-69123819D01*
X131448600Y-69056475D01*
X131313913Y-68989132D01*
X131246569Y-68989132D01*
X130472119Y-68551399D02*
X130000714Y-69022804D01*
X130909852Y-68450384D02*
X130573134Y-69123819D01*
X130135401Y-68686086D01*
%TO.C,C3*%
X136021653Y-76129245D02*
X136008457Y-76195283D01*
X136048104Y-76340555D01*
X136100946Y-76419789D01*
X136219827Y-76512218D01*
X136351903Y-76538610D01*
X136457558Y-76525384D01*
X136642446Y-76459316D01*
X136761297Y-76380053D01*
X136893343Y-76234751D01*
X136946156Y-76142292D01*
X136972547Y-76010216D01*
X136932900Y-75864944D01*
X136880058Y-75785711D01*
X136761178Y-75693281D01*
X136695140Y-75680085D01*
X136589425Y-75349925D02*
X136245950Y-74834906D01*
X136113963Y-75323593D01*
X136034700Y-75204743D01*
X135942241Y-75151930D01*
X135876203Y-75138734D01*
X135770548Y-75151960D01*
X135572464Y-75284066D01*
X135519651Y-75376525D01*
X135506455Y-75442563D01*
X135519681Y-75548218D01*
X135678208Y-75785919D01*
X135770667Y-75838732D01*
X135836705Y-75851927D01*
%TO.C,C2*%
X139987675Y-83616889D02*
X139961904Y-83679106D01*
X139972579Y-83829312D01*
X140009025Y-83917301D01*
X140107688Y-84031060D01*
X140232123Y-84082603D01*
X140338334Y-84090151D01*
X140532534Y-84061253D01*
X140664517Y-84006584D01*
X140822271Y-83889698D01*
X140892037Y-83809258D01*
X140943579Y-83684823D01*
X140932904Y-83534617D01*
X140896458Y-83446629D01*
X140797795Y-83332869D01*
X140735578Y-83307098D01*
X140589793Y-82955144D02*
X140615565Y-82892926D01*
X140623113Y-82786715D01*
X140531998Y-82566743D01*
X140451557Y-82496978D01*
X140389340Y-82471207D01*
X140283129Y-82463658D01*
X140195140Y-82500105D01*
X140081380Y-82598768D01*
X139772125Y-83345375D01*
X139535226Y-82773450D01*
%TO.C,C1*%
X142414265Y-91731616D02*
X142376802Y-91787578D01*
X142357837Y-91936964D01*
X142376336Y-92030388D01*
X142450796Y-92161275D01*
X142562719Y-92236201D01*
X142665392Y-92264414D01*
X142861490Y-92274130D01*
X143001627Y-92246382D01*
X143179226Y-92162673D01*
X143263401Y-92097462D01*
X143338327Y-91985539D01*
X143357291Y-91836153D01*
X143338793Y-91742729D01*
X143264333Y-91611842D01*
X143208371Y-91574379D01*
X142135855Y-90815872D02*
X142246846Y-91376418D01*
X142191351Y-91096145D02*
X143172306Y-90901910D01*
X143050668Y-91023083D01*
X142975742Y-91135005D01*
X142947529Y-91237679D01*
%TD*%
M02*
