%TF.GenerationSoftware,KiCad,Pcbnew,5.1.12-84ad8e8a86~92~ubuntu20.04.1*%
%TF.CreationDate,2021-11-26T14:05:01+01:00*%
%TF.ProjectId,led-ring-transom,6c65642d-7269-46e6-972d-7472616e736f,rev?*%
%TF.SameCoordinates,Original*%
%TF.FileFunction,Legend,Top*%
%TF.FilePolarity,Positive*%
%FSLAX46Y46*%
G04 Gerber Fmt 4.6, Leading zero omitted, Abs format (unit mm)*
G04 Created by KiCad (PCBNEW 5.1.12-84ad8e8a86~92~ubuntu20.04.1) date 2021-11-26 14:05:01*
%MOMM*%
%LPD*%
G01*
G04 APERTURE LIST*
%ADD10C,0.120000*%
%ADD11C,0.150000*%
G04 APERTURE END LIST*
D10*
%TO.C,D42*%
X60680000Y-97300000D02*
X65680000Y-97300000D01*
X66780000Y-101600000D02*
X66780000Y-102700000D01*
X66780000Y-102700000D02*
X60680000Y-102700000D01*
%TO.C,D41*%
X68860000Y-97300000D02*
X73860000Y-97300000D01*
X74960000Y-101600000D02*
X74960000Y-102700000D01*
X74960000Y-102700000D02*
X68860000Y-102700000D01*
%TO.C,D40*%
X77040000Y-97300000D02*
X82040000Y-97300000D01*
X83140000Y-101600000D02*
X83140000Y-102700000D01*
X83140000Y-102700000D02*
X77040000Y-102700000D01*
%TO.C,D39*%
X85220000Y-97300000D02*
X90220000Y-97300000D01*
X91320000Y-101600000D02*
X91320000Y-102700000D01*
X91320000Y-102700000D02*
X85220000Y-102700000D01*
%TO.C,D38*%
X93400000Y-97300000D02*
X98400000Y-97300000D01*
X99500000Y-101600000D02*
X99500000Y-102700000D01*
X99500000Y-102700000D02*
X93400000Y-102700000D01*
%TO.C,D37*%
X101580000Y-97300000D02*
X106580000Y-97300000D01*
X107680000Y-101600000D02*
X107680000Y-102700000D01*
X107680000Y-102700000D02*
X101580000Y-102700000D01*
%TO.C,D36*%
X109760000Y-97300000D02*
X114760000Y-97300000D01*
X115860000Y-101600000D02*
X115860000Y-102700000D01*
X115860000Y-102700000D02*
X109760000Y-102700000D01*
%TO.C,D35*%
X117940000Y-97300000D02*
X122940000Y-97300000D01*
X124040000Y-101600000D02*
X124040000Y-102700000D01*
X124040000Y-102700000D02*
X117940000Y-102700000D01*
%TO.C,D34*%
X126120000Y-97300000D02*
X131120000Y-97300000D01*
X132220000Y-101600000D02*
X132220000Y-102700000D01*
X132220000Y-102700000D02*
X126120000Y-102700000D01*
%TO.C,D33*%
X134300000Y-97300000D02*
X139300000Y-97300000D01*
X140400000Y-101600000D02*
X140400000Y-102700000D01*
X140400000Y-102700000D02*
X134300000Y-102700000D01*
%TO.C,D32*%
X147700000Y-97500000D02*
X147700000Y-102500000D01*
X143400000Y-103600000D02*
X142300000Y-103600000D01*
X142300000Y-103600000D02*
X142300000Y-97500000D01*
%TO.C,D31*%
X147272525Y-106856518D02*
X146292794Y-111759591D01*
X141860610Y-111995699D02*
X140781934Y-111780158D01*
X140781934Y-111780158D02*
X141977206Y-105798409D01*
%TO.C,D30*%
X145026183Y-115944546D02*
X143112766Y-120563944D01*
X138719132Y-119934673D02*
X137702865Y-119513721D01*
X137702865Y-119513721D02*
X140037234Y-113878056D01*
%TO.C,D29*%
X141050397Y-124425537D02*
X138268919Y-128580459D01*
X134083761Y-127102471D02*
X133169678Y-126490546D01*
X133169678Y-126490546D02*
X136563081Y-121421541D01*
%TO.C,D28*%
X135496955Y-131961421D02*
X131961421Y-135496955D01*
X128143045Y-133234214D02*
X127365227Y-132456396D01*
X127365227Y-132456396D02*
X131678579Y-128143045D01*
%TO.C,D27*%
X128578965Y-138275165D02*
X124419195Y-141049387D01*
X121118214Y-138082313D02*
X120507885Y-137167164D01*
X120507885Y-137167164D02*
X125582805Y-133782613D01*
%TO.C,D26*%
X120563944Y-143112766D02*
X115944546Y-145026183D01*
X113282740Y-141474453D02*
X112861788Y-140458186D01*
X112861788Y-140458186D02*
X118497454Y-138123817D01*
%TO.C,D25*%
X111755821Y-146297993D02*
X106851045Y-147269165D01*
X104936786Y-143264715D02*
X104723129Y-142185665D01*
X104723129Y-142185665D02*
X110706955Y-141000835D01*
%TO.C,D24*%
X102500000Y-147700000D02*
X97500000Y-147700000D01*
X96400000Y-143400000D02*
X96400000Y-142300000D01*
X96400000Y-142300000D02*
X102500000Y-142300000D01*
%TO.C,D23*%
X93143482Y-147272525D02*
X88240409Y-146292794D01*
X88004301Y-141860610D02*
X88219842Y-140781934D01*
X88219842Y-140781934D02*
X94201591Y-141977206D01*
%TO.C,D22*%
X84055454Y-145026183D02*
X79436056Y-143112766D01*
X80065327Y-138719132D02*
X80486279Y-137702865D01*
X80486279Y-137702865D02*
X86121944Y-140037234D01*
%TO.C,D21*%
X75574463Y-141050397D02*
X71419541Y-138268919D01*
X72897529Y-134083761D02*
X73509454Y-133169678D01*
X73509454Y-133169678D02*
X78578459Y-136563081D01*
%TO.C,D20*%
X68038579Y-135496955D02*
X64503045Y-131961421D01*
X66765786Y-128143045D02*
X67543604Y-127365227D01*
X67543604Y-127365227D02*
X71856955Y-131678579D01*
%TO.C,D19*%
X61724835Y-128578965D02*
X58950613Y-124419195D01*
X61917687Y-121118214D02*
X62832836Y-120507885D01*
X62832836Y-120507885D02*
X66217387Y-125582805D01*
%TO.C,D18*%
X56887234Y-120563944D02*
X54973817Y-115944546D01*
X58525547Y-113282740D02*
X59541814Y-112861788D01*
X59541814Y-112861788D02*
X61876183Y-118497454D01*
%TO.C,D17*%
X53702007Y-111755821D02*
X52730835Y-106851045D01*
X56735285Y-104936786D02*
X57814335Y-104723129D01*
X57814335Y-104723129D02*
X58999165Y-110706955D01*
%TO.C,D16*%
X52300000Y-102500000D02*
X52300000Y-97500000D01*
X56600000Y-96400000D02*
X57700000Y-96400000D01*
X57700000Y-96400000D02*
X57700000Y-102500000D01*
%TO.C,D15*%
X52727475Y-93143482D02*
X53707206Y-88240409D01*
X58139390Y-88004301D02*
X59218066Y-88219842D01*
X59218066Y-88219842D02*
X58022794Y-94201591D01*
%TO.C,D14*%
X54973817Y-84055454D02*
X56887234Y-79436056D01*
X61280868Y-80065327D02*
X62297135Y-80486279D01*
X62297135Y-80486279D02*
X59962766Y-86121944D01*
%TO.C,D13*%
X58949603Y-75574463D02*
X61731081Y-71419541D01*
X65916239Y-72897529D02*
X66830322Y-73509454D01*
X66830322Y-73509454D02*
X63436919Y-78578459D01*
%TO.C,D12*%
X64503045Y-68038579D02*
X68038579Y-64503045D01*
X71856955Y-66765786D02*
X72634773Y-67543604D01*
X72634773Y-67543604D02*
X68321421Y-71856955D01*
%TO.C,D11*%
X71421035Y-61724835D02*
X75580805Y-58950613D01*
X78881786Y-61917687D02*
X79492115Y-62832836D01*
X79492115Y-62832836D02*
X74417195Y-66217387D01*
%TO.C,D10*%
X79436056Y-56887234D02*
X84055454Y-54973817D01*
X86717260Y-58525547D02*
X87138212Y-59541814D01*
X87138212Y-59541814D02*
X81502546Y-61876183D01*
%TO.C,D9*%
X88244179Y-53702007D02*
X93148955Y-52730835D01*
X95063214Y-56735285D02*
X95276871Y-57814335D01*
X95276871Y-57814335D02*
X89293045Y-58999165D01*
%TO.C,D8*%
X97500000Y-52300000D02*
X102500000Y-52300000D01*
X103600000Y-56600000D02*
X103600000Y-57700000D01*
X103600000Y-57700000D02*
X97500000Y-57700000D01*
%TO.C,D7*%
X106856518Y-52727475D02*
X111759591Y-53707206D01*
X111995699Y-58139390D02*
X111780158Y-59218066D01*
X111780158Y-59218066D02*
X105798409Y-58022794D01*
%TO.C,D6*%
X115944546Y-54973817D02*
X120563944Y-56887234D01*
X119934673Y-61280868D02*
X119513721Y-62297135D01*
X119513721Y-62297135D02*
X113878056Y-59962766D01*
%TO.C,D5*%
X124425537Y-58949603D02*
X128580459Y-61731081D01*
X127102471Y-65916239D02*
X126490546Y-66830322D01*
X126490546Y-66830322D02*
X121421541Y-63436919D01*
%TO.C,D4*%
X131961421Y-64503045D02*
X135496955Y-68038579D01*
X133234214Y-71856955D02*
X132456396Y-72634773D01*
X132456396Y-72634773D02*
X128143045Y-68321421D01*
%TO.C,D3*%
X138275165Y-71421035D02*
X141049387Y-75580805D01*
X138082313Y-78881786D02*
X137167164Y-79492115D01*
X137167164Y-79492115D02*
X133782613Y-74417195D01*
%TO.C,D2*%
X143112766Y-79436056D02*
X145026183Y-84055454D01*
X141474453Y-86717260D02*
X140458186Y-87138212D01*
X140458186Y-87138212D02*
X138123817Y-81502546D01*
%TO.C,D1*%
X146297993Y-88244179D02*
X147269165Y-93148955D01*
X143264715Y-95063214D02*
X142185665Y-95276871D01*
X142185665Y-95276871D02*
X141000835Y-89293045D01*
%TO.C,D42*%
D11*
X61965714Y-103952380D02*
X61965714Y-102952380D01*
X62203809Y-102952380D01*
X62346666Y-103000000D01*
X62441904Y-103095238D01*
X62489523Y-103190476D01*
X62537142Y-103380952D01*
X62537142Y-103523809D01*
X62489523Y-103714285D01*
X62441904Y-103809523D01*
X62346666Y-103904761D01*
X62203809Y-103952380D01*
X61965714Y-103952380D01*
X63394285Y-103285714D02*
X63394285Y-103952380D01*
X63156190Y-102904761D02*
X62918095Y-103619047D01*
X63537142Y-103619047D01*
X63870476Y-103047619D02*
X63918095Y-103000000D01*
X64013333Y-102952380D01*
X64251428Y-102952380D01*
X64346666Y-103000000D01*
X64394285Y-103047619D01*
X64441904Y-103142857D01*
X64441904Y-103238095D01*
X64394285Y-103380952D01*
X63822857Y-103952380D01*
X64441904Y-103952380D01*
%TO.C,D41*%
X70145714Y-103952380D02*
X70145714Y-102952380D01*
X70383809Y-102952380D01*
X70526666Y-103000000D01*
X70621904Y-103095238D01*
X70669523Y-103190476D01*
X70717142Y-103380952D01*
X70717142Y-103523809D01*
X70669523Y-103714285D01*
X70621904Y-103809523D01*
X70526666Y-103904761D01*
X70383809Y-103952380D01*
X70145714Y-103952380D01*
X71574285Y-103285714D02*
X71574285Y-103952380D01*
X71336190Y-102904761D02*
X71098095Y-103619047D01*
X71717142Y-103619047D01*
X72621904Y-103952380D02*
X72050476Y-103952380D01*
X72336190Y-103952380D02*
X72336190Y-102952380D01*
X72240952Y-103095238D01*
X72145714Y-103190476D01*
X72050476Y-103238095D01*
%TO.C,D40*%
X78325714Y-103952380D02*
X78325714Y-102952380D01*
X78563809Y-102952380D01*
X78706666Y-103000000D01*
X78801904Y-103095238D01*
X78849523Y-103190476D01*
X78897142Y-103380952D01*
X78897142Y-103523809D01*
X78849523Y-103714285D01*
X78801904Y-103809523D01*
X78706666Y-103904761D01*
X78563809Y-103952380D01*
X78325714Y-103952380D01*
X79754285Y-103285714D02*
X79754285Y-103952380D01*
X79516190Y-102904761D02*
X79278095Y-103619047D01*
X79897142Y-103619047D01*
X80468571Y-102952380D02*
X80563809Y-102952380D01*
X80659047Y-103000000D01*
X80706666Y-103047619D01*
X80754285Y-103142857D01*
X80801904Y-103333333D01*
X80801904Y-103571428D01*
X80754285Y-103761904D01*
X80706666Y-103857142D01*
X80659047Y-103904761D01*
X80563809Y-103952380D01*
X80468571Y-103952380D01*
X80373333Y-103904761D01*
X80325714Y-103857142D01*
X80278095Y-103761904D01*
X80230476Y-103571428D01*
X80230476Y-103333333D01*
X80278095Y-103142857D01*
X80325714Y-103047619D01*
X80373333Y-103000000D01*
X80468571Y-102952380D01*
%TO.C,D39*%
X86505714Y-103952380D02*
X86505714Y-102952380D01*
X86743809Y-102952380D01*
X86886666Y-103000000D01*
X86981904Y-103095238D01*
X87029523Y-103190476D01*
X87077142Y-103380952D01*
X87077142Y-103523809D01*
X87029523Y-103714285D01*
X86981904Y-103809523D01*
X86886666Y-103904761D01*
X86743809Y-103952380D01*
X86505714Y-103952380D01*
X87410476Y-102952380D02*
X88029523Y-102952380D01*
X87696190Y-103333333D01*
X87839047Y-103333333D01*
X87934285Y-103380952D01*
X87981904Y-103428571D01*
X88029523Y-103523809D01*
X88029523Y-103761904D01*
X87981904Y-103857142D01*
X87934285Y-103904761D01*
X87839047Y-103952380D01*
X87553333Y-103952380D01*
X87458095Y-103904761D01*
X87410476Y-103857142D01*
X88505714Y-103952380D02*
X88696190Y-103952380D01*
X88791428Y-103904761D01*
X88839047Y-103857142D01*
X88934285Y-103714285D01*
X88981904Y-103523809D01*
X88981904Y-103142857D01*
X88934285Y-103047619D01*
X88886666Y-103000000D01*
X88791428Y-102952380D01*
X88600952Y-102952380D01*
X88505714Y-103000000D01*
X88458095Y-103047619D01*
X88410476Y-103142857D01*
X88410476Y-103380952D01*
X88458095Y-103476190D01*
X88505714Y-103523809D01*
X88600952Y-103571428D01*
X88791428Y-103571428D01*
X88886666Y-103523809D01*
X88934285Y-103476190D01*
X88981904Y-103380952D01*
%TO.C,D38*%
X94685714Y-103952380D02*
X94685714Y-102952380D01*
X94923809Y-102952380D01*
X95066666Y-103000000D01*
X95161904Y-103095238D01*
X95209523Y-103190476D01*
X95257142Y-103380952D01*
X95257142Y-103523809D01*
X95209523Y-103714285D01*
X95161904Y-103809523D01*
X95066666Y-103904761D01*
X94923809Y-103952380D01*
X94685714Y-103952380D01*
X95590476Y-102952380D02*
X96209523Y-102952380D01*
X95876190Y-103333333D01*
X96019047Y-103333333D01*
X96114285Y-103380952D01*
X96161904Y-103428571D01*
X96209523Y-103523809D01*
X96209523Y-103761904D01*
X96161904Y-103857142D01*
X96114285Y-103904761D01*
X96019047Y-103952380D01*
X95733333Y-103952380D01*
X95638095Y-103904761D01*
X95590476Y-103857142D01*
X96780952Y-103380952D02*
X96685714Y-103333333D01*
X96638095Y-103285714D01*
X96590476Y-103190476D01*
X96590476Y-103142857D01*
X96638095Y-103047619D01*
X96685714Y-103000000D01*
X96780952Y-102952380D01*
X96971428Y-102952380D01*
X97066666Y-103000000D01*
X97114285Y-103047619D01*
X97161904Y-103142857D01*
X97161904Y-103190476D01*
X97114285Y-103285714D01*
X97066666Y-103333333D01*
X96971428Y-103380952D01*
X96780952Y-103380952D01*
X96685714Y-103428571D01*
X96638095Y-103476190D01*
X96590476Y-103571428D01*
X96590476Y-103761904D01*
X96638095Y-103857142D01*
X96685714Y-103904761D01*
X96780952Y-103952380D01*
X96971428Y-103952380D01*
X97066666Y-103904761D01*
X97114285Y-103857142D01*
X97161904Y-103761904D01*
X97161904Y-103571428D01*
X97114285Y-103476190D01*
X97066666Y-103428571D01*
X96971428Y-103380952D01*
%TO.C,D37*%
X102865714Y-103952380D02*
X102865714Y-102952380D01*
X103103809Y-102952380D01*
X103246666Y-103000000D01*
X103341904Y-103095238D01*
X103389523Y-103190476D01*
X103437142Y-103380952D01*
X103437142Y-103523809D01*
X103389523Y-103714285D01*
X103341904Y-103809523D01*
X103246666Y-103904761D01*
X103103809Y-103952380D01*
X102865714Y-103952380D01*
X103770476Y-102952380D02*
X104389523Y-102952380D01*
X104056190Y-103333333D01*
X104199047Y-103333333D01*
X104294285Y-103380952D01*
X104341904Y-103428571D01*
X104389523Y-103523809D01*
X104389523Y-103761904D01*
X104341904Y-103857142D01*
X104294285Y-103904761D01*
X104199047Y-103952380D01*
X103913333Y-103952380D01*
X103818095Y-103904761D01*
X103770476Y-103857142D01*
X104722857Y-102952380D02*
X105389523Y-102952380D01*
X104960952Y-103952380D01*
%TO.C,D36*%
X111045714Y-103952380D02*
X111045714Y-102952380D01*
X111283809Y-102952380D01*
X111426666Y-103000000D01*
X111521904Y-103095238D01*
X111569523Y-103190476D01*
X111617142Y-103380952D01*
X111617142Y-103523809D01*
X111569523Y-103714285D01*
X111521904Y-103809523D01*
X111426666Y-103904761D01*
X111283809Y-103952380D01*
X111045714Y-103952380D01*
X111950476Y-102952380D02*
X112569523Y-102952380D01*
X112236190Y-103333333D01*
X112379047Y-103333333D01*
X112474285Y-103380952D01*
X112521904Y-103428571D01*
X112569523Y-103523809D01*
X112569523Y-103761904D01*
X112521904Y-103857142D01*
X112474285Y-103904761D01*
X112379047Y-103952380D01*
X112093333Y-103952380D01*
X111998095Y-103904761D01*
X111950476Y-103857142D01*
X113426666Y-102952380D02*
X113236190Y-102952380D01*
X113140952Y-103000000D01*
X113093333Y-103047619D01*
X112998095Y-103190476D01*
X112950476Y-103380952D01*
X112950476Y-103761904D01*
X112998095Y-103857142D01*
X113045714Y-103904761D01*
X113140952Y-103952380D01*
X113331428Y-103952380D01*
X113426666Y-103904761D01*
X113474285Y-103857142D01*
X113521904Y-103761904D01*
X113521904Y-103523809D01*
X113474285Y-103428571D01*
X113426666Y-103380952D01*
X113331428Y-103333333D01*
X113140952Y-103333333D01*
X113045714Y-103380952D01*
X112998095Y-103428571D01*
X112950476Y-103523809D01*
%TO.C,D35*%
X119225714Y-103952380D02*
X119225714Y-102952380D01*
X119463809Y-102952380D01*
X119606666Y-103000000D01*
X119701904Y-103095238D01*
X119749523Y-103190476D01*
X119797142Y-103380952D01*
X119797142Y-103523809D01*
X119749523Y-103714285D01*
X119701904Y-103809523D01*
X119606666Y-103904761D01*
X119463809Y-103952380D01*
X119225714Y-103952380D01*
X120130476Y-102952380D02*
X120749523Y-102952380D01*
X120416190Y-103333333D01*
X120559047Y-103333333D01*
X120654285Y-103380952D01*
X120701904Y-103428571D01*
X120749523Y-103523809D01*
X120749523Y-103761904D01*
X120701904Y-103857142D01*
X120654285Y-103904761D01*
X120559047Y-103952380D01*
X120273333Y-103952380D01*
X120178095Y-103904761D01*
X120130476Y-103857142D01*
X121654285Y-102952380D02*
X121178095Y-102952380D01*
X121130476Y-103428571D01*
X121178095Y-103380952D01*
X121273333Y-103333333D01*
X121511428Y-103333333D01*
X121606666Y-103380952D01*
X121654285Y-103428571D01*
X121701904Y-103523809D01*
X121701904Y-103761904D01*
X121654285Y-103857142D01*
X121606666Y-103904761D01*
X121511428Y-103952380D01*
X121273333Y-103952380D01*
X121178095Y-103904761D01*
X121130476Y-103857142D01*
%TO.C,D34*%
X127405714Y-103952380D02*
X127405714Y-102952380D01*
X127643809Y-102952380D01*
X127786666Y-103000000D01*
X127881904Y-103095238D01*
X127929523Y-103190476D01*
X127977142Y-103380952D01*
X127977142Y-103523809D01*
X127929523Y-103714285D01*
X127881904Y-103809523D01*
X127786666Y-103904761D01*
X127643809Y-103952380D01*
X127405714Y-103952380D01*
X128310476Y-102952380D02*
X128929523Y-102952380D01*
X128596190Y-103333333D01*
X128739047Y-103333333D01*
X128834285Y-103380952D01*
X128881904Y-103428571D01*
X128929523Y-103523809D01*
X128929523Y-103761904D01*
X128881904Y-103857142D01*
X128834285Y-103904761D01*
X128739047Y-103952380D01*
X128453333Y-103952380D01*
X128358095Y-103904761D01*
X128310476Y-103857142D01*
X129786666Y-103285714D02*
X129786666Y-103952380D01*
X129548571Y-102904761D02*
X129310476Y-103619047D01*
X129929523Y-103619047D01*
%TO.C,D33*%
X135585714Y-103952380D02*
X135585714Y-102952380D01*
X135823809Y-102952380D01*
X135966666Y-103000000D01*
X136061904Y-103095238D01*
X136109523Y-103190476D01*
X136157142Y-103380952D01*
X136157142Y-103523809D01*
X136109523Y-103714285D01*
X136061904Y-103809523D01*
X135966666Y-103904761D01*
X135823809Y-103952380D01*
X135585714Y-103952380D01*
X136490476Y-102952380D02*
X137109523Y-102952380D01*
X136776190Y-103333333D01*
X136919047Y-103333333D01*
X137014285Y-103380952D01*
X137061904Y-103428571D01*
X137109523Y-103523809D01*
X137109523Y-103761904D01*
X137061904Y-103857142D01*
X137014285Y-103904761D01*
X136919047Y-103952380D01*
X136633333Y-103952380D01*
X136538095Y-103904761D01*
X136490476Y-103857142D01*
X137442857Y-102952380D02*
X138061904Y-102952380D01*
X137728571Y-103333333D01*
X137871428Y-103333333D01*
X137966666Y-103380952D01*
X138014285Y-103428571D01*
X138061904Y-103523809D01*
X138061904Y-103761904D01*
X138014285Y-103857142D01*
X137966666Y-103904761D01*
X137871428Y-103952380D01*
X137585714Y-103952380D01*
X137490476Y-103904761D01*
X137442857Y-103857142D01*
%TO.C,D32*%
X141952380Y-101214285D02*
X140952380Y-101214285D01*
X140952380Y-100976190D01*
X141000000Y-100833333D01*
X141095238Y-100738095D01*
X141190476Y-100690476D01*
X141380952Y-100642857D01*
X141523809Y-100642857D01*
X141714285Y-100690476D01*
X141809523Y-100738095D01*
X141904761Y-100833333D01*
X141952380Y-100976190D01*
X141952380Y-101214285D01*
X140952380Y-100309523D02*
X140952380Y-99690476D01*
X141333333Y-100023809D01*
X141333333Y-99880952D01*
X141380952Y-99785714D01*
X141428571Y-99738095D01*
X141523809Y-99690476D01*
X141761904Y-99690476D01*
X141857142Y-99738095D01*
X141904761Y-99785714D01*
X141952380Y-99880952D01*
X141952380Y-100166666D01*
X141904761Y-100261904D01*
X141857142Y-100309523D01*
X141047619Y-99309523D02*
X141000000Y-99261904D01*
X140952380Y-99166666D01*
X140952380Y-98928571D01*
X141000000Y-98833333D01*
X141047619Y-98785714D01*
X141142857Y-98738095D01*
X141238095Y-98738095D01*
X141380952Y-98785714D01*
X141952380Y-99357142D01*
X141952380Y-98738095D01*
%TO.C,D31*%
X140908525Y-109372576D02*
X139927911Y-109176630D01*
X139974564Y-108943150D01*
X140049253Y-108812393D01*
X140161306Y-108737663D01*
X140264029Y-108709629D01*
X140460143Y-108700256D01*
X140600231Y-108728248D01*
X140777684Y-108812267D01*
X140861745Y-108877625D01*
X140936476Y-108989678D01*
X140955179Y-109139096D01*
X140908525Y-109372576D01*
X140105195Y-108289407D02*
X140226495Y-107682360D01*
X140534747Y-108083878D01*
X140562740Y-107943790D01*
X140628097Y-107859729D01*
X140684124Y-107822364D01*
X140786846Y-107794329D01*
X141020326Y-107840983D01*
X141104387Y-107906341D01*
X141141752Y-107962367D01*
X141169787Y-108065090D01*
X141113802Y-108345266D01*
X141048445Y-108429327D01*
X140992418Y-108466692D01*
X141393725Y-106944387D02*
X141281756Y-107504739D01*
X141337741Y-107224563D02*
X140357126Y-107028617D01*
X140478552Y-107150001D01*
X140553283Y-107262055D01*
X140581317Y-107364777D01*
%TO.C,D30*%
X138294680Y-117176580D02*
X137370800Y-116793896D01*
X137461916Y-116573925D01*
X137560579Y-116460165D01*
X137685013Y-116408623D01*
X137791225Y-116401075D01*
X137985425Y-116429973D01*
X138117408Y-116484642D01*
X138275162Y-116601528D01*
X138344927Y-116681968D01*
X138396470Y-116806403D01*
X138385795Y-116956609D01*
X138294680Y-117176580D01*
X137717038Y-115958005D02*
X137953937Y-115386080D01*
X138178330Y-115839824D01*
X138232999Y-115707841D01*
X138313439Y-115638076D01*
X138375657Y-115612305D01*
X138481868Y-115604756D01*
X138701840Y-115695871D01*
X138771605Y-115776312D01*
X138797376Y-115838529D01*
X138804925Y-115944741D01*
X138695586Y-116208706D01*
X138615146Y-116278472D01*
X138552929Y-116304243D01*
X138190836Y-114814155D02*
X138227282Y-114726166D01*
X138307723Y-114656401D01*
X138369940Y-114630629D01*
X138476152Y-114623081D01*
X138670352Y-114651979D01*
X138890323Y-114743094D01*
X139048077Y-114859980D01*
X139117842Y-114940421D01*
X139143614Y-115002638D01*
X139151162Y-115108850D01*
X139114716Y-115196838D01*
X139034276Y-115266604D01*
X138972058Y-115292375D01*
X138865847Y-115299923D01*
X138671647Y-115271025D01*
X138451675Y-115179910D01*
X138293921Y-115063024D01*
X138224156Y-114982583D01*
X138198385Y-114920366D01*
X138190836Y-114814155D01*
%TO.C,D29*%
X134207973Y-124314675D02*
X133376989Y-123758379D01*
X133509440Y-123560526D01*
X133628482Y-123468304D01*
X133760603Y-123442143D01*
X133866235Y-123455553D01*
X134051008Y-123521943D01*
X134169720Y-123601414D01*
X134301513Y-123746946D01*
X134354164Y-123839497D01*
X134380325Y-123971619D01*
X134340425Y-124116821D01*
X134207973Y-124314675D01*
X133985935Y-123019946D02*
X133972855Y-122953885D01*
X133986265Y-122848253D01*
X134118716Y-122650400D01*
X134211267Y-122597749D01*
X134277328Y-122584668D01*
X134382960Y-122598078D01*
X134462101Y-122651059D01*
X134554323Y-122770100D01*
X134711288Y-123562832D01*
X135055662Y-123048413D01*
X135320564Y-122652706D02*
X135426526Y-122494423D01*
X135439935Y-122388791D01*
X135426855Y-122322730D01*
X135361123Y-122164118D01*
X135229331Y-122018586D01*
X134912765Y-121806664D01*
X134807134Y-121793254D01*
X134741073Y-121806335D01*
X134648522Y-121858986D01*
X134542561Y-122017269D01*
X134529151Y-122122900D01*
X134542231Y-122188961D01*
X134594882Y-122281513D01*
X134792736Y-122413964D01*
X134898367Y-122427374D01*
X134964428Y-122414293D01*
X135056979Y-122361642D01*
X135162941Y-122203359D01*
X135176350Y-122097728D01*
X135163270Y-122031667D01*
X135110619Y-121939116D01*
%TO.C,D28*%
X128806377Y-130523637D02*
X128099271Y-129816530D01*
X128267629Y-129648171D01*
X128402316Y-129580828D01*
X128537003Y-129580828D01*
X128638019Y-129614500D01*
X128806377Y-129715515D01*
X128907393Y-129816530D01*
X129008408Y-129984889D01*
X129042080Y-130085904D01*
X129042080Y-130220591D01*
X128974736Y-130355278D01*
X128806377Y-130523637D01*
X128840049Y-129210438D02*
X128840049Y-129143095D01*
X128873721Y-129042080D01*
X129042080Y-128873721D01*
X129143095Y-128840049D01*
X129210438Y-128840049D01*
X129311454Y-128873721D01*
X129378797Y-128941064D01*
X129446141Y-129075751D01*
X129446141Y-129883874D01*
X129883874Y-129446141D01*
X129883874Y-128638019D02*
X129782858Y-128671690D01*
X129715515Y-128671690D01*
X129614500Y-128638019D01*
X129580828Y-128604347D01*
X129547156Y-128503332D01*
X129547156Y-128435988D01*
X129580828Y-128334973D01*
X129715515Y-128200286D01*
X129816530Y-128166614D01*
X129883874Y-128166614D01*
X129984889Y-128200286D01*
X130018561Y-128233958D01*
X130052232Y-128334973D01*
X130052232Y-128402316D01*
X130018561Y-128503332D01*
X129883874Y-128638019D01*
X129850202Y-128739034D01*
X129850202Y-128806377D01*
X129883874Y-128907393D01*
X130018561Y-129042080D01*
X130119576Y-129075751D01*
X130186919Y-129075751D01*
X130287935Y-129042080D01*
X130422622Y-128907393D01*
X130456293Y-128806377D01*
X130456293Y-128739034D01*
X130422622Y-128638019D01*
X130287935Y-128503332D01*
X130186919Y-128469660D01*
X130119576Y-128469660D01*
X130018561Y-128503332D01*
%TO.C,D27*%
X122299816Y-135554260D02*
X121744971Y-134722306D01*
X121943055Y-134590200D01*
X122088327Y-134550554D01*
X122220403Y-134576945D01*
X122312862Y-134629758D01*
X122458164Y-134761804D01*
X122537427Y-134880655D01*
X122603495Y-135065543D01*
X122616721Y-135171198D01*
X122590329Y-135303274D01*
X122497900Y-135422155D01*
X122299816Y-135554260D01*
X122590151Y-134273117D02*
X122603346Y-134207079D01*
X122656159Y-134114619D01*
X122854243Y-133982514D01*
X122959898Y-133969288D01*
X123025936Y-133982484D01*
X123118395Y-134035296D01*
X123171238Y-134114530D01*
X123210884Y-134259802D01*
X123052536Y-135052258D01*
X123567555Y-134708783D01*
X123290029Y-133691881D02*
X123844665Y-133321985D01*
X124042958Y-134391729D01*
%TO.C,D26*%
X114932872Y-139224054D02*
X114550189Y-138300174D01*
X114770160Y-138209059D01*
X114920366Y-138198385D01*
X115044801Y-138249927D01*
X115125241Y-138319693D01*
X115242127Y-138477447D01*
X115296796Y-138609429D01*
X115325694Y-138803629D01*
X115318146Y-138909841D01*
X115266604Y-139034276D01*
X115152844Y-139132939D01*
X114932872Y-139224054D01*
X115466520Y-138023703D02*
X115492292Y-137961485D01*
X115562057Y-137881045D01*
X115782028Y-137789930D01*
X115888240Y-137797478D01*
X115950457Y-137823249D01*
X116030898Y-137893015D01*
X116067344Y-137981003D01*
X116078018Y-138131209D01*
X115768763Y-138877817D01*
X116340689Y-138640917D01*
X116749902Y-137389023D02*
X116573925Y-137461916D01*
X116504160Y-137542356D01*
X116478388Y-137604573D01*
X116445069Y-137773002D01*
X116473967Y-137967202D01*
X116619751Y-138319156D01*
X116700191Y-138388922D01*
X116762409Y-138414693D01*
X116868620Y-138422241D01*
X117044597Y-138349349D01*
X117114363Y-138268909D01*
X117140134Y-138206691D01*
X117147682Y-138100480D01*
X117056567Y-137880509D01*
X116976127Y-137810743D01*
X116913909Y-137784972D01*
X116807698Y-137777424D01*
X116631721Y-137850316D01*
X116561955Y-137930756D01*
X116536184Y-137992973D01*
X116528636Y-138099185D01*
%TO.C,D25*%
X106995888Y-141381278D02*
X106801653Y-140400323D01*
X107035214Y-140354076D01*
X107184600Y-140373041D01*
X107296523Y-140447967D01*
X107361733Y-140532142D01*
X107445442Y-140709741D01*
X107473190Y-140849878D01*
X107463475Y-141045975D01*
X107435261Y-141148649D01*
X107360336Y-141260572D01*
X107229448Y-141335032D01*
X106995888Y-141381278D01*
X107754395Y-140308762D02*
X107791858Y-140252801D01*
X107876033Y-140187590D01*
X108109593Y-140141344D01*
X108212267Y-140169557D01*
X108268228Y-140207020D01*
X108333439Y-140291195D01*
X108351938Y-140384620D01*
X108332973Y-140534005D01*
X107883418Y-141205542D01*
X108490676Y-141085302D01*
X109183973Y-139928611D02*
X108716851Y-140021103D01*
X108762632Y-140497474D01*
X108800095Y-140441513D01*
X108884270Y-140376302D01*
X109117830Y-140330056D01*
X109220504Y-140358269D01*
X109276465Y-140395732D01*
X109341676Y-140479907D01*
X109387922Y-140713468D01*
X109359709Y-140816142D01*
X109322246Y-140872103D01*
X109238071Y-140937314D01*
X109004510Y-140983560D01*
X108901836Y-140955346D01*
X108845875Y-140917883D01*
%TO.C,D24*%
X98785714Y-141952380D02*
X98785714Y-140952380D01*
X99023809Y-140952380D01*
X99166666Y-141000000D01*
X99261904Y-141095238D01*
X99309523Y-141190476D01*
X99357142Y-141380952D01*
X99357142Y-141523809D01*
X99309523Y-141714285D01*
X99261904Y-141809523D01*
X99166666Y-141904761D01*
X99023809Y-141952380D01*
X98785714Y-141952380D01*
X99738095Y-141047619D02*
X99785714Y-141000000D01*
X99880952Y-140952380D01*
X100119047Y-140952380D01*
X100214285Y-141000000D01*
X100261904Y-141047619D01*
X100309523Y-141142857D01*
X100309523Y-141238095D01*
X100261904Y-141380952D01*
X99690476Y-141952380D01*
X100309523Y-141952380D01*
X101166666Y-141285714D02*
X101166666Y-141952380D01*
X100928571Y-140904761D02*
X100690476Y-141619047D01*
X101309523Y-141619047D01*
%TO.C,D23*%
X90627423Y-140908525D02*
X90823369Y-139927911D01*
X91056849Y-139974564D01*
X91187606Y-140049253D01*
X91262336Y-140161306D01*
X91290370Y-140264029D01*
X91299743Y-140460143D01*
X91271751Y-140600231D01*
X91187732Y-140777684D01*
X91122374Y-140861745D01*
X91010321Y-140936476D01*
X90860903Y-140955179D01*
X90627423Y-140908525D01*
X91738626Y-140207918D02*
X91794653Y-140170553D01*
X91897376Y-140142518D01*
X92130855Y-140189172D01*
X92214916Y-140254530D01*
X92252281Y-140310556D01*
X92280316Y-140413279D01*
X92261654Y-140506671D01*
X92186966Y-140637428D01*
X91514646Y-141085810D01*
X92121693Y-141207110D01*
X92644510Y-140291811D02*
X93251558Y-140413111D01*
X92850040Y-140721363D01*
X92990128Y-140749355D01*
X93074189Y-140814712D01*
X93111554Y-140870739D01*
X93139588Y-140973462D01*
X93092935Y-141206942D01*
X93027577Y-141291003D01*
X92971550Y-141328368D01*
X92868828Y-141356402D01*
X92588652Y-141300418D01*
X92504591Y-141235060D01*
X92467226Y-141179033D01*
%TO.C,D22*%
X82823419Y-138294680D02*
X83206103Y-137370800D01*
X83426074Y-137461916D01*
X83539834Y-137560579D01*
X83591376Y-137685013D01*
X83598924Y-137791225D01*
X83570026Y-137985425D01*
X83515357Y-138117408D01*
X83398471Y-138275162D01*
X83318031Y-138344927D01*
X83193596Y-138396470D01*
X83043390Y-138385795D01*
X82823419Y-138294680D01*
X84049542Y-137823249D02*
X84111759Y-137797478D01*
X84217971Y-137789930D01*
X84437942Y-137881045D01*
X84507707Y-137961485D01*
X84533479Y-138023703D01*
X84541027Y-138129914D01*
X84504581Y-138217903D01*
X84405918Y-138331662D01*
X83659310Y-138640917D01*
X84231236Y-138877817D01*
X84929427Y-138187710D02*
X84991644Y-138161939D01*
X85097856Y-138154390D01*
X85317827Y-138245505D01*
X85387593Y-138325946D01*
X85413364Y-138388163D01*
X85420912Y-138494375D01*
X85384466Y-138582363D01*
X85285803Y-138696123D01*
X84539195Y-139005378D01*
X85111121Y-139242277D01*
%TO.C,D21*%
X75685324Y-134207973D02*
X76241620Y-133376989D01*
X76439473Y-133509440D01*
X76531695Y-133628482D01*
X76557856Y-133760603D01*
X76544446Y-133866235D01*
X76478056Y-134051008D01*
X76398585Y-134169720D01*
X76253053Y-134301513D01*
X76160502Y-134354164D01*
X76028380Y-134380325D01*
X75883178Y-134340425D01*
X75685324Y-134207973D01*
X76980053Y-133985935D02*
X77046114Y-133972855D01*
X77151746Y-133986265D01*
X77349599Y-134118716D01*
X77402250Y-134211267D01*
X77415331Y-134277328D01*
X77401921Y-134382960D01*
X77348940Y-134462101D01*
X77229899Y-134554323D01*
X76437167Y-134711288D01*
X76951586Y-135055662D01*
X77743000Y-135585467D02*
X77268152Y-135267584D01*
X77505576Y-135426526D02*
X78061872Y-134595541D01*
X77903260Y-134661273D01*
X77771138Y-134687433D01*
X77665506Y-134674024D01*
%TO.C,D20*%
X69476362Y-128806377D02*
X70183469Y-128099271D01*
X70351828Y-128267629D01*
X70419171Y-128402316D01*
X70419171Y-128537003D01*
X70385499Y-128638019D01*
X70284484Y-128806377D01*
X70183469Y-128907393D01*
X70015110Y-129008408D01*
X69914095Y-129042080D01*
X69779408Y-129042080D01*
X69644721Y-128974736D01*
X69476362Y-128806377D01*
X70789561Y-128840049D02*
X70856904Y-128840049D01*
X70957919Y-128873721D01*
X71126278Y-129042080D01*
X71159950Y-129143095D01*
X71159950Y-129210438D01*
X71126278Y-129311454D01*
X71058935Y-129378797D01*
X70924248Y-129446141D01*
X70116125Y-129446141D01*
X70553858Y-129883874D01*
X71698698Y-129614500D02*
X71766041Y-129681843D01*
X71799713Y-129782858D01*
X71799713Y-129850202D01*
X71766041Y-129951217D01*
X71665026Y-130119576D01*
X71496667Y-130287935D01*
X71328309Y-130388950D01*
X71227293Y-130422622D01*
X71159950Y-130422622D01*
X71058935Y-130388950D01*
X70991591Y-130321606D01*
X70957919Y-130220591D01*
X70957919Y-130153248D01*
X70991591Y-130052232D01*
X71092606Y-129883874D01*
X71260965Y-129715515D01*
X71429324Y-129614500D01*
X71530339Y-129580828D01*
X71597683Y-129580828D01*
X71698698Y-129614500D01*
%TO.C,D19*%
X64445739Y-122299816D02*
X65277693Y-121744971D01*
X65409799Y-121943055D01*
X65449445Y-122088327D01*
X65423054Y-122220403D01*
X65370241Y-122312862D01*
X65238195Y-122458164D01*
X65119344Y-122537427D01*
X64934456Y-122603495D01*
X64828801Y-122616721D01*
X64696725Y-122590329D01*
X64577844Y-122497900D01*
X64445739Y-122299816D01*
X65291216Y-123567555D02*
X64974162Y-123092153D01*
X65132689Y-123329854D02*
X65964643Y-122775010D01*
X65792950Y-122775039D01*
X65660874Y-122748648D01*
X65568415Y-122695835D01*
X65555427Y-123963724D02*
X65661112Y-124122191D01*
X65753571Y-124175004D01*
X65819609Y-124188200D01*
X65991302Y-124188170D01*
X66176191Y-124122102D01*
X66493126Y-123910733D01*
X66545938Y-123818273D01*
X66559134Y-123752235D01*
X66545909Y-123646581D01*
X66440224Y-123488113D01*
X66347765Y-123435301D01*
X66281727Y-123422105D01*
X66176072Y-123435330D01*
X65977988Y-123567436D01*
X65925175Y-123659895D01*
X65911979Y-123725933D01*
X65925205Y-123831588D01*
X66030889Y-123990056D01*
X66123349Y-124042868D01*
X66189387Y-124056064D01*
X66295041Y-124042838D01*
%TO.C,D18*%
X60775945Y-114932872D02*
X61699825Y-114550189D01*
X61790940Y-114770160D01*
X61801614Y-114920366D01*
X61750072Y-115044801D01*
X61680306Y-115125241D01*
X61522552Y-115242127D01*
X61390570Y-115296796D01*
X61196370Y-115325694D01*
X61090158Y-115318146D01*
X60965723Y-115266604D01*
X60867060Y-115152844D01*
X60775945Y-114932872D01*
X61359082Y-116340689D02*
X61140405Y-115812758D01*
X61249744Y-116076723D02*
X62173623Y-115694040D01*
X62005194Y-115660720D01*
X61880760Y-115609178D01*
X61800319Y-115539412D01*
X62105689Y-116649944D02*
X62113237Y-116543732D01*
X62139009Y-116481515D01*
X62208774Y-116401075D01*
X62252768Y-116382852D01*
X62358980Y-116390400D01*
X62421197Y-116416171D01*
X62501637Y-116485937D01*
X62574529Y-116661914D01*
X62566981Y-116768125D01*
X62541210Y-116830343D01*
X62471445Y-116910783D01*
X62427450Y-116929006D01*
X62321239Y-116921458D01*
X62259021Y-116895686D01*
X62178581Y-116825921D01*
X62105689Y-116649944D01*
X62025249Y-116580178D01*
X61963031Y-116554407D01*
X61856820Y-116546859D01*
X61680843Y-116619751D01*
X61611077Y-116700191D01*
X61585306Y-116762409D01*
X61577758Y-116868620D01*
X61650650Y-117044597D01*
X61731090Y-117114363D01*
X61793308Y-117140134D01*
X61899519Y-117147682D01*
X62075496Y-117074790D01*
X62145262Y-116994350D01*
X62171033Y-116932132D01*
X62178581Y-116825921D01*
%TO.C,D17*%
X58618721Y-106995888D02*
X59599676Y-106801653D01*
X59645923Y-107035214D01*
X59626958Y-107184600D01*
X59552032Y-107296523D01*
X59467857Y-107361733D01*
X59290258Y-107445442D01*
X59150121Y-107473190D01*
X58954024Y-107463475D01*
X58851350Y-107435261D01*
X58739427Y-107360336D01*
X58664967Y-107229448D01*
X58618721Y-106995888D01*
X58914697Y-108490676D02*
X58803706Y-107930131D01*
X58859202Y-108210403D02*
X59840157Y-108016169D01*
X59681522Y-107950493D01*
X59569599Y-107875567D01*
X59504388Y-107791392D01*
X59960397Y-108623427D02*
X60089887Y-109277397D01*
X59025688Y-109051222D01*
%TO.C,D16*%
X58952380Y-101214285D02*
X57952380Y-101214285D01*
X57952380Y-100976190D01*
X58000000Y-100833333D01*
X58095238Y-100738095D01*
X58190476Y-100690476D01*
X58380952Y-100642857D01*
X58523809Y-100642857D01*
X58714285Y-100690476D01*
X58809523Y-100738095D01*
X58904761Y-100833333D01*
X58952380Y-100976190D01*
X58952380Y-101214285D01*
X58952380Y-99690476D02*
X58952380Y-100261904D01*
X58952380Y-99976190D02*
X57952380Y-99976190D01*
X58095238Y-100071428D01*
X58190476Y-100166666D01*
X58238095Y-100261904D01*
X57952380Y-98833333D02*
X57952380Y-99023809D01*
X58000000Y-99119047D01*
X58047619Y-99166666D01*
X58190476Y-99261904D01*
X58380952Y-99309523D01*
X58761904Y-99309523D01*
X58857142Y-99261904D01*
X58904761Y-99214285D01*
X58952380Y-99119047D01*
X58952380Y-98928571D01*
X58904761Y-98833333D01*
X58857142Y-98785714D01*
X58761904Y-98738095D01*
X58523809Y-98738095D01*
X58428571Y-98785714D01*
X58380952Y-98833333D01*
X58333333Y-98928571D01*
X58333333Y-99119047D01*
X58380952Y-99214285D01*
X58428571Y-99261904D01*
X58523809Y-99309523D01*
%TO.C,D15*%
X59502827Y-93186200D02*
X58522213Y-92990254D01*
X58568866Y-92756774D01*
X58643555Y-92626017D01*
X58755608Y-92551287D01*
X58858331Y-92523253D01*
X59054445Y-92513880D01*
X59194533Y-92541872D01*
X59371986Y-92625891D01*
X59456047Y-92691249D01*
X59530778Y-92803302D01*
X59549481Y-92952720D01*
X59502827Y-93186200D01*
X59801412Y-91691930D02*
X59689443Y-92252281D01*
X59745427Y-91972106D02*
X58764813Y-91776160D01*
X58886239Y-91897544D01*
X58960969Y-92009597D01*
X58989004Y-92112320D01*
X58998082Y-90608761D02*
X58904774Y-91075721D01*
X59362403Y-91215724D01*
X59325038Y-91159698D01*
X59297003Y-91056975D01*
X59343657Y-90823495D01*
X59409014Y-90739434D01*
X59465041Y-90702069D01*
X59567764Y-90674035D01*
X59801244Y-90720688D01*
X59885305Y-90786046D01*
X59922670Y-90842073D01*
X59950704Y-90944795D01*
X59904050Y-91178275D01*
X59838693Y-91262336D01*
X59782666Y-91299701D01*
%TO.C,D14*%
X61611836Y-85413364D02*
X60687956Y-85030680D01*
X60779072Y-84810709D01*
X60877735Y-84696949D01*
X61002169Y-84645407D01*
X61108381Y-84637859D01*
X61302581Y-84666757D01*
X61434564Y-84721426D01*
X61592318Y-84838312D01*
X61662083Y-84918752D01*
X61713626Y-85043187D01*
X61702951Y-85193393D01*
X61611836Y-85413364D01*
X62194973Y-84005547D02*
X61976296Y-84533479D01*
X62085635Y-84269513D02*
X61161755Y-83886830D01*
X61257292Y-84029487D01*
X61308834Y-84153922D01*
X61316382Y-84260133D01*
X61907067Y-82958528D02*
X62522987Y-83213651D01*
X61463998Y-83032716D02*
X62032797Y-83526032D01*
X62269696Y-82954107D01*
%TO.C,D13*%
X65192865Y-78206745D02*
X64361881Y-77650449D01*
X64494332Y-77452596D01*
X64613374Y-77360374D01*
X64745495Y-77334213D01*
X64851127Y-77347623D01*
X65035900Y-77414013D01*
X65154612Y-77493484D01*
X65286405Y-77639016D01*
X65339056Y-77731567D01*
X65365217Y-77863689D01*
X65325317Y-78008891D01*
X65192865Y-78206745D01*
X66040554Y-76940483D02*
X65722671Y-77415331D01*
X65881612Y-77177907D02*
X65050628Y-76621611D01*
X65116359Y-76780223D01*
X65142520Y-76912345D01*
X65129110Y-77017977D01*
X65395001Y-76107192D02*
X65739375Y-75592773D01*
X65870508Y-76081690D01*
X65949979Y-75962978D01*
X66042530Y-75910327D01*
X66108591Y-75897247D01*
X66214223Y-75910656D01*
X66412076Y-76043108D01*
X66464727Y-76135659D01*
X66477808Y-76201720D01*
X66464398Y-76307352D01*
X66305456Y-76544776D01*
X66212905Y-76597427D01*
X66146844Y-76610507D01*
%TO.C,D12*%
X70116125Y-71833385D02*
X69409019Y-71126278D01*
X69577377Y-70957919D01*
X69712064Y-70890576D01*
X69846751Y-70890576D01*
X69947767Y-70924248D01*
X70116125Y-71025263D01*
X70217141Y-71126278D01*
X70318156Y-71294637D01*
X70351828Y-71395652D01*
X70351828Y-71530339D01*
X70284484Y-71665026D01*
X70116125Y-71833385D01*
X71193622Y-70755889D02*
X70789561Y-71159950D01*
X70991591Y-70957919D02*
X70284484Y-70250812D01*
X70318156Y-70419171D01*
X70318156Y-70553858D01*
X70284484Y-70654874D01*
X70823232Y-69846751D02*
X70823232Y-69779408D01*
X70856904Y-69678393D01*
X71025263Y-69510034D01*
X71126278Y-69476362D01*
X71193622Y-69476362D01*
X71294637Y-69510034D01*
X71361980Y-69577377D01*
X71429324Y-69712064D01*
X71429324Y-70520186D01*
X71867057Y-70082454D01*
%TO.C,D11*%
X76181726Y-66545938D02*
X75626881Y-65713984D01*
X75824965Y-65581878D01*
X75970237Y-65542232D01*
X76102313Y-65568623D01*
X76194772Y-65621436D01*
X76340074Y-65753482D01*
X76419337Y-65872333D01*
X76485405Y-66057221D01*
X76498631Y-66162876D01*
X76472239Y-66294952D01*
X76379810Y-66413833D01*
X76181726Y-66545938D01*
X77449465Y-65700461D02*
X76974063Y-66017515D01*
X77211764Y-65858988D02*
X76656920Y-65027034D01*
X76656949Y-65198727D01*
X76630558Y-65330803D01*
X76577745Y-65423262D01*
X78241802Y-65172038D02*
X77766400Y-65489092D01*
X78004101Y-65330565D02*
X77449257Y-64498611D01*
X77449287Y-64670304D01*
X77422895Y-64802380D01*
X77370083Y-64894839D01*
%TO.C,D10*%
X83169656Y-62541210D02*
X82786973Y-61617330D01*
X83006944Y-61526215D01*
X83157150Y-61515541D01*
X83281585Y-61567083D01*
X83362025Y-61636849D01*
X83478911Y-61794603D01*
X83533580Y-61926585D01*
X83562478Y-62120785D01*
X83554930Y-62226997D01*
X83503388Y-62351432D01*
X83389628Y-62450095D01*
X83169656Y-62541210D01*
X84577473Y-61958073D02*
X84049542Y-62176750D01*
X84313507Y-62067411D02*
X83930824Y-61143532D01*
X83897504Y-61311961D01*
X83845962Y-61436395D01*
X83776196Y-61516836D01*
X84766715Y-60797295D02*
X84854703Y-60760849D01*
X84960915Y-60768397D01*
X85023132Y-60794168D01*
X85103573Y-60863933D01*
X85220459Y-61021688D01*
X85311574Y-61241659D01*
X85340472Y-61435859D01*
X85332924Y-61542070D01*
X85307152Y-61604288D01*
X85237387Y-61684728D01*
X85149398Y-61721174D01*
X85043187Y-61713626D01*
X84980970Y-61687855D01*
X84900529Y-61618089D01*
X84783643Y-61460335D01*
X84692528Y-61240364D01*
X84663630Y-61046164D01*
X84671178Y-60939952D01*
X84696949Y-60877735D01*
X84766715Y-60797295D01*
%TO.C,D9*%
X91264649Y-59885471D02*
X91070415Y-58904516D01*
X91303975Y-58858270D01*
X91453361Y-58877234D01*
X91565284Y-58952160D01*
X91630495Y-59036335D01*
X91714204Y-59213935D01*
X91741952Y-59354071D01*
X91732236Y-59550169D01*
X91704023Y-59652842D01*
X91629097Y-59764765D01*
X91498210Y-59839225D01*
X91264649Y-59885471D01*
X92292316Y-59681988D02*
X92479165Y-59644991D01*
X92563340Y-59579780D01*
X92600803Y-59523819D01*
X92666479Y-59365184D01*
X92676195Y-59169086D01*
X92602201Y-58795389D01*
X92536990Y-58711214D01*
X92481029Y-58673751D01*
X92378355Y-58645537D01*
X92191506Y-58682534D01*
X92107331Y-58747745D01*
X92069868Y-58803706D01*
X92041655Y-58906380D01*
X92087901Y-59139940D01*
X92153112Y-59224116D01*
X92209073Y-59261578D01*
X92311747Y-59289792D01*
X92498595Y-59252795D01*
X92582770Y-59187584D01*
X92620233Y-59131623D01*
X92648447Y-59028949D01*
%TO.C,D8*%
X99261904Y-58952380D02*
X99261904Y-57952380D01*
X99500000Y-57952380D01*
X99642857Y-58000000D01*
X99738095Y-58095238D01*
X99785714Y-58190476D01*
X99833333Y-58380952D01*
X99833333Y-58523809D01*
X99785714Y-58714285D01*
X99738095Y-58809523D01*
X99642857Y-58904761D01*
X99500000Y-58952380D01*
X99261904Y-58952380D01*
X100404761Y-58380952D02*
X100309523Y-58333333D01*
X100261904Y-58285714D01*
X100214285Y-58190476D01*
X100214285Y-58142857D01*
X100261904Y-58047619D01*
X100309523Y-58000000D01*
X100404761Y-57952380D01*
X100595238Y-57952380D01*
X100690476Y-58000000D01*
X100738095Y-58047619D01*
X100785714Y-58142857D01*
X100785714Y-58190476D01*
X100738095Y-58285714D01*
X100690476Y-58333333D01*
X100595238Y-58380952D01*
X100404761Y-58380952D01*
X100309523Y-58428571D01*
X100261904Y-58476190D01*
X100214285Y-58571428D01*
X100214285Y-58761904D01*
X100261904Y-58857142D01*
X100309523Y-58904761D01*
X100404761Y-58952380D01*
X100595238Y-58952380D01*
X100690476Y-58904761D01*
X100738095Y-58857142D01*
X100785714Y-58761904D01*
X100785714Y-58571428D01*
X100738095Y-58476190D01*
X100690476Y-58428571D01*
X100595238Y-58380952D01*
%TO.C,D7*%
X107280758Y-59596135D02*
X107476704Y-58615520D01*
X107710184Y-58662174D01*
X107840941Y-58736862D01*
X107915671Y-58848916D01*
X107943706Y-58951638D01*
X107953079Y-59147753D01*
X107925086Y-59287841D01*
X107841067Y-59465294D01*
X107775710Y-59549355D01*
X107663656Y-59624085D01*
X107514238Y-59642789D01*
X107280758Y-59596135D01*
X108363927Y-58792805D02*
X109017670Y-58923436D01*
X108401461Y-59820073D01*
%TO.C,D6*%
X115026578Y-61794066D02*
X115409261Y-60870187D01*
X115629232Y-60961302D01*
X115742992Y-61059965D01*
X115794535Y-61184400D01*
X115802083Y-61290611D01*
X115773185Y-61484811D01*
X115718516Y-61616794D01*
X115601630Y-61774548D01*
X115521189Y-61844314D01*
X115396755Y-61895856D01*
X115246549Y-61885181D01*
X115026578Y-61794066D01*
X116729089Y-61416877D02*
X116553112Y-61343985D01*
X116446900Y-61351533D01*
X116384683Y-61377305D01*
X116242026Y-61472841D01*
X116125139Y-61630595D01*
X115979355Y-61982550D01*
X115986903Y-62088761D01*
X116012675Y-62150978D01*
X116082440Y-62231419D01*
X116258417Y-62304311D01*
X116364629Y-62296763D01*
X116426846Y-62270991D01*
X116507286Y-62201226D01*
X116598401Y-61981254D01*
X116590853Y-61875043D01*
X116565082Y-61812826D01*
X116495316Y-61732385D01*
X116319339Y-61659493D01*
X116213128Y-61667041D01*
X116150910Y-61692813D01*
X116070470Y-61762578D01*
%TO.C,D5*%
X122188961Y-65457768D02*
X122745257Y-64626783D01*
X122943110Y-64759235D01*
X123035332Y-64878276D01*
X123061493Y-65010398D01*
X123048083Y-65116030D01*
X122981693Y-65300803D01*
X122902222Y-65419515D01*
X122756690Y-65551307D01*
X122664139Y-65603959D01*
X122532017Y-65630119D01*
X122386815Y-65590219D01*
X122188961Y-65457768D01*
X123971948Y-65447982D02*
X123576241Y-65183079D01*
X123271768Y-65552296D01*
X123337829Y-65539215D01*
X123443461Y-65552625D01*
X123641314Y-65685076D01*
X123693965Y-65777628D01*
X123707046Y-65843689D01*
X123693636Y-65949320D01*
X123561184Y-66147174D01*
X123468633Y-66199825D01*
X123402572Y-66212905D01*
X123296941Y-66199495D01*
X123099087Y-66067044D01*
X123046436Y-65974493D01*
X123033356Y-65908432D01*
%TO.C,D4*%
X128503332Y-70452843D02*
X129210438Y-69745736D01*
X129378797Y-69914095D01*
X129446141Y-70048782D01*
X129446141Y-70183469D01*
X129412469Y-70284484D01*
X129311454Y-70452843D01*
X129210438Y-70553858D01*
X129042080Y-70654874D01*
X128941064Y-70688545D01*
X128806377Y-70688545D01*
X128671690Y-70621202D01*
X128503332Y-70452843D01*
X129984889Y-70991591D02*
X129513484Y-71462996D01*
X130085904Y-70553858D02*
X129412469Y-70890576D01*
X129850202Y-71328309D01*
%TO.C,D3*%
X133718272Y-76577894D02*
X134550226Y-76023050D01*
X134682332Y-76221134D01*
X134721979Y-76366406D01*
X134695587Y-76498482D01*
X134642775Y-76590941D01*
X134510729Y-76736243D01*
X134391878Y-76815506D01*
X134206989Y-76881574D01*
X134101334Y-76894799D01*
X133969258Y-76868408D01*
X133850378Y-76775978D01*
X133718272Y-76577894D01*
X135052228Y-76775770D02*
X135395704Y-77290789D01*
X134893821Y-77224841D01*
X134973084Y-77343691D01*
X134986310Y-77449346D01*
X134973114Y-77515384D01*
X134920301Y-77607843D01*
X134722217Y-77739949D01*
X134616562Y-77753175D01*
X134550524Y-77739979D01*
X134458065Y-77687166D01*
X134299538Y-77449465D01*
X134286312Y-77343810D01*
X134299508Y-77277772D01*
%TO.C,D2*%
X137641019Y-83609599D02*
X138564899Y-83226916D01*
X138656014Y-83446887D01*
X138666689Y-83597093D01*
X138615146Y-83721527D01*
X138545381Y-83801968D01*
X138387627Y-83918854D01*
X138255644Y-83973523D01*
X138061444Y-84002421D01*
X137955232Y-83994873D01*
X137830798Y-83943330D01*
X137732134Y-83829570D01*
X137641019Y-83609599D01*
X138841371Y-84143247D02*
X138903588Y-84169018D01*
X138984028Y-84238784D01*
X139075143Y-84458755D01*
X139067595Y-84564967D01*
X139041824Y-84627184D01*
X138972058Y-84707624D01*
X138884070Y-84744070D01*
X138733864Y-84754745D01*
X137987257Y-84445490D01*
X138224156Y-85017416D01*
%TO.C,D1*%
X140114528Y-91264649D02*
X141095483Y-91070415D01*
X141141729Y-91303975D01*
X141122765Y-91453361D01*
X141047839Y-91565284D01*
X140963664Y-91630495D01*
X140786064Y-91714204D01*
X140645928Y-91741952D01*
X140449830Y-91732236D01*
X140347157Y-91704023D01*
X140235234Y-91629097D01*
X140160774Y-91498210D01*
X140114528Y-91264649D01*
X140410504Y-92759438D02*
X140299513Y-92198892D01*
X140355008Y-92479165D02*
X141335963Y-92284931D01*
X141177328Y-92219254D01*
X141065406Y-92144328D01*
X141000195Y-92060153D01*
%TD*%
M02*
