%TF.GenerationSoftware,KiCad,Pcbnew,5.1.12-84ad8e8a86~92~ubuntu20.04.1*%
%TF.CreationDate,2021-11-26T19:12:35+01:00*%
%TF.ProjectId,led-ring-with-crossbar,6c65642d-7269-46e6-972d-776974682d63,rev?*%
%TF.SameCoordinates,Original*%
%TF.FileFunction,Paste,Top*%
%TF.FilePolarity,Positive*%
%FSLAX46Y46*%
G04 Gerber Fmt 4.6, Leading zero omitted, Abs format (unit mm)*
G04 Created by KiCad (PCBNEW 5.1.12-84ad8e8a86~92~ubuntu20.04.1) date 2021-11-26 19:12:35*
%MOMM*%
%LPD*%
G01*
G04 APERTURE LIST*
%ADD10R,2.000000X1.100000*%
%ADD11R,1.100000X2.000000*%
%ADD12C,0.100000*%
G04 APERTURE END LIST*
D10*
%TO.C,D42*%
X60780000Y-101700000D03*
X60780000Y-100000000D03*
X60780000Y-98300000D03*
X65580000Y-98300000D03*
X65580000Y-100000000D03*
X65580000Y-101700000D03*
%TD*%
%TO.C,D41*%
X68960000Y-101700000D03*
X68960000Y-100000000D03*
X68960000Y-98300000D03*
X73760000Y-98300000D03*
X73760000Y-100000000D03*
X73760000Y-101700000D03*
%TD*%
%TO.C,D40*%
X77140000Y-101700000D03*
X77140000Y-100000000D03*
X77140000Y-98300000D03*
X81940000Y-98300000D03*
X81940000Y-100000000D03*
X81940000Y-101700000D03*
%TD*%
%TO.C,D39*%
X85320000Y-101700000D03*
X85320000Y-100000000D03*
X85320000Y-98300000D03*
X90120000Y-98300000D03*
X90120000Y-100000000D03*
X90120000Y-101700000D03*
%TD*%
%TO.C,D38*%
X93500000Y-101700000D03*
X93500000Y-100000000D03*
X93500000Y-98300000D03*
X98300000Y-98300000D03*
X98300000Y-100000000D03*
X98300000Y-101700000D03*
%TD*%
%TO.C,D37*%
X101680000Y-101700000D03*
X101680000Y-100000000D03*
X101680000Y-98300000D03*
X106480000Y-98300000D03*
X106480000Y-100000000D03*
X106480000Y-101700000D03*
%TD*%
%TO.C,D36*%
X109860000Y-101700000D03*
X109860000Y-100000000D03*
X109860000Y-98300000D03*
X114660000Y-98300000D03*
X114660000Y-100000000D03*
X114660000Y-101700000D03*
%TD*%
%TO.C,D35*%
X118040000Y-101700000D03*
X118040000Y-100000000D03*
X118040000Y-98300000D03*
X122840000Y-98300000D03*
X122840000Y-100000000D03*
X122840000Y-101700000D03*
%TD*%
%TO.C,D34*%
X126220000Y-101700000D03*
X126220000Y-100000000D03*
X126220000Y-98300000D03*
X131020000Y-98300000D03*
X131020000Y-100000000D03*
X131020000Y-101700000D03*
%TD*%
%TO.C,D33*%
X134400000Y-101700000D03*
X134400000Y-100000000D03*
X134400000Y-98300000D03*
X139200000Y-98300000D03*
X139200000Y-100000000D03*
X139200000Y-101700000D03*
%TD*%
D11*
%TO.C,D32*%
X143300000Y-97600000D03*
X145000000Y-97600000D03*
X146700000Y-97600000D03*
X146700000Y-102400000D03*
X145000000Y-102400000D03*
X143300000Y-102400000D03*
%TD*%
D12*
%TO.C,D31*%
G36*
X143673510Y-105219572D02*
G01*
X143281618Y-107180801D01*
X142202942Y-106965260D01*
X142594834Y-105004031D01*
X143673510Y-105219572D01*
G37*
G36*
X145340555Y-105552681D02*
G01*
X144948663Y-107513910D01*
X143869987Y-107298369D01*
X144261879Y-105337140D01*
X145340555Y-105552681D01*
G37*
G36*
X147007600Y-105885789D02*
G01*
X146615708Y-107847018D01*
X145537032Y-107631477D01*
X145928924Y-105670248D01*
X147007600Y-105885789D01*
G37*
G36*
X146067058Y-110592740D02*
G01*
X145675166Y-112553969D01*
X144596490Y-112338428D01*
X144988382Y-110377199D01*
X146067058Y-110592740D01*
G37*
G36*
X144400013Y-110259631D02*
G01*
X144008121Y-112220860D01*
X142929445Y-112005319D01*
X143321337Y-110044090D01*
X144400013Y-110259631D01*
G37*
G36*
X142732968Y-109926523D02*
G01*
X142341076Y-111887752D01*
X141262400Y-111672211D01*
X141654292Y-109710982D01*
X142732968Y-109926523D01*
G37*
%TD*%
%TO.C,D30*%
G36*
X141813662Y-113639723D02*
G01*
X141048295Y-115487482D01*
X140032028Y-115066531D01*
X140797395Y-113218772D01*
X141813662Y-113639723D01*
G37*
G36*
X143384257Y-114290285D02*
G01*
X142618890Y-116138044D01*
X141602623Y-115717093D01*
X142367990Y-113869334D01*
X143384257Y-114290285D01*
G37*
G36*
X144954852Y-114940847D02*
G01*
X144189485Y-116788606D01*
X143173218Y-116367655D01*
X143938585Y-114519896D01*
X144954852Y-114940847D01*
G37*
G36*
X143117972Y-119375469D02*
G01*
X142352605Y-121223228D01*
X141336338Y-120802277D01*
X142101705Y-118954518D01*
X143117972Y-119375469D01*
G37*
G36*
X141547377Y-118724907D02*
G01*
X140782010Y-120572666D01*
X139765743Y-120151715D01*
X140531110Y-118303956D01*
X141547377Y-118724907D01*
G37*
G36*
X139976782Y-118074345D02*
G01*
X139211415Y-119922104D01*
X138195148Y-119501153D01*
X138960515Y-117653394D01*
X139976782Y-118074345D01*
G37*
%TD*%
%TO.C,D29*%
G36*
X138351773Y-121535913D02*
G01*
X137239182Y-123197882D01*
X136325099Y-122585957D01*
X137437690Y-120923988D01*
X138351773Y-121535913D01*
G37*
G36*
X139764446Y-122481615D02*
G01*
X138651855Y-124143584D01*
X137737772Y-123531659D01*
X138850363Y-121869690D01*
X139764446Y-122481615D01*
G37*
G36*
X141177120Y-123427318D02*
G01*
X140064529Y-125089287D01*
X139150446Y-124477362D01*
X140263037Y-122815393D01*
X141177120Y-123427318D01*
G37*
G36*
X138506901Y-127416043D02*
G01*
X137394310Y-129078012D01*
X136480227Y-128466087D01*
X137592818Y-126804118D01*
X138506901Y-127416043D01*
G37*
G36*
X137094228Y-126470341D02*
G01*
X135981637Y-128132310D01*
X135067554Y-127520385D01*
X136180145Y-125858416D01*
X137094228Y-126470341D01*
G37*
G36*
X135681554Y-125524638D02*
G01*
X134568963Y-127186607D01*
X133654880Y-126574682D01*
X134767471Y-124912713D01*
X135681554Y-125524638D01*
G37*
%TD*%
%TO.C,D28*%
G36*
X133410991Y-128602664D02*
G01*
X131996777Y-130016878D01*
X131218959Y-129239060D01*
X132633173Y-127824846D01*
X133410991Y-128602664D01*
G37*
G36*
X134613072Y-129804746D02*
G01*
X133198858Y-131218960D01*
X132421040Y-130441142D01*
X133835254Y-129026928D01*
X134613072Y-129804746D01*
G37*
G36*
X135815154Y-131006827D02*
G01*
X134400940Y-132421041D01*
X133623122Y-131643223D01*
X135037336Y-130229009D01*
X135815154Y-131006827D01*
G37*
G36*
X132421041Y-134400940D02*
G01*
X131006827Y-135815154D01*
X130229009Y-135037336D01*
X131643223Y-133623122D01*
X132421041Y-134400940D01*
G37*
G36*
X131218960Y-133198858D02*
G01*
X129804746Y-134613072D01*
X129026928Y-133835254D01*
X130441142Y-132421040D01*
X131218960Y-133198858D01*
G37*
G36*
X130016878Y-131996777D02*
G01*
X128602664Y-133410991D01*
X127824846Y-132633173D01*
X129239060Y-131218959D01*
X130016878Y-131996777D01*
G37*
%TD*%
%TO.C,D27*%
G36*
X127191573Y-134572781D02*
G01*
X125527664Y-135682470D01*
X124917335Y-134767321D01*
X126581244Y-133657632D01*
X127191573Y-134572781D01*
G37*
G36*
X128134809Y-135987103D02*
G01*
X126470900Y-137096792D01*
X125860571Y-136181643D01*
X127524480Y-135071954D01*
X128134809Y-135987103D01*
G37*
G36*
X129078044Y-137401425D02*
G01*
X127414135Y-138511114D01*
X126803806Y-137595965D01*
X128467715Y-136486276D01*
X129078044Y-137401425D01*
G37*
G36*
X125084665Y-140064679D02*
G01*
X123420756Y-141174368D01*
X122810427Y-140259219D01*
X124474336Y-139149530D01*
X125084665Y-140064679D01*
G37*
G36*
X124141429Y-138650357D02*
G01*
X122477520Y-139760046D01*
X121867191Y-138844897D01*
X123531100Y-137735208D01*
X124141429Y-138650357D01*
G37*
G36*
X123198194Y-137236035D02*
G01*
X121534285Y-138345724D01*
X120923956Y-137430575D01*
X122587865Y-136320886D01*
X123198194Y-137236035D01*
G37*
%TD*%
%TO.C,D26*%
G36*
X119922104Y-139211415D02*
G01*
X118074345Y-139976782D01*
X117653394Y-138960515D01*
X119501153Y-138195148D01*
X119922104Y-139211415D01*
G37*
G36*
X120572666Y-140782010D02*
G01*
X118724907Y-141547377D01*
X118303956Y-140531110D01*
X120151715Y-139765743D01*
X120572666Y-140782010D01*
G37*
G36*
X121223228Y-142352605D02*
G01*
X119375469Y-143117972D01*
X118954518Y-142101705D01*
X120802277Y-141336338D01*
X121223228Y-142352605D01*
G37*
G36*
X116788606Y-144189485D02*
G01*
X114940847Y-144954852D01*
X114519896Y-143938585D01*
X116367655Y-143173218D01*
X116788606Y-144189485D01*
G37*
G36*
X116138044Y-142618890D02*
G01*
X114290285Y-143384257D01*
X113869334Y-142367990D01*
X115717093Y-141602623D01*
X116138044Y-142618890D01*
G37*
G36*
X115487482Y-141048295D02*
G01*
X113639723Y-141813662D01*
X113218772Y-140797395D01*
X115066531Y-140032028D01*
X115487482Y-141048295D01*
G37*
%TD*%
%TO.C,D25*%
G36*
X111890878Y-142346505D02*
G01*
X109928968Y-142734974D01*
X109715310Y-141655923D01*
X111677220Y-141267454D01*
X111890878Y-142346505D01*
G37*
G36*
X112221076Y-144014129D02*
G01*
X110259166Y-144402598D01*
X110045508Y-143323547D01*
X112007418Y-142935078D01*
X112221076Y-144014129D01*
G37*
G36*
X112551275Y-145681752D02*
G01*
X110589365Y-146070221D01*
X110375707Y-144991170D01*
X112337617Y-144602701D01*
X112551275Y-145681752D01*
G37*
G36*
X107842690Y-146614077D02*
G01*
X105880780Y-147002546D01*
X105667122Y-145923495D01*
X107629032Y-145535026D01*
X107842690Y-146614077D01*
G37*
G36*
X107512492Y-144946453D02*
G01*
X105550582Y-145334922D01*
X105336924Y-144255871D01*
X107298834Y-143867402D01*
X107512492Y-144946453D01*
G37*
G36*
X107182293Y-143278830D02*
G01*
X105220383Y-143667299D01*
X105006725Y-142588248D01*
X106968635Y-142199779D01*
X107182293Y-143278830D01*
G37*
%TD*%
D10*
%TO.C,D24*%
X102400000Y-143300000D03*
X102400000Y-145000000D03*
X102400000Y-146700000D03*
X97600000Y-146700000D03*
X97600000Y-145000000D03*
X97600000Y-143300000D03*
%TD*%
D12*
%TO.C,D23*%
G36*
X94780428Y-143673510D02*
G01*
X92819199Y-143281618D01*
X93034740Y-142202942D01*
X94995969Y-142594834D01*
X94780428Y-143673510D01*
G37*
G36*
X94447319Y-145340555D02*
G01*
X92486090Y-144948663D01*
X92701631Y-143869987D01*
X94662860Y-144261879D01*
X94447319Y-145340555D01*
G37*
G36*
X94114211Y-147007600D02*
G01*
X92152982Y-146615708D01*
X92368523Y-145537032D01*
X94329752Y-145928924D01*
X94114211Y-147007600D01*
G37*
G36*
X89407260Y-146067058D02*
G01*
X87446031Y-145675166D01*
X87661572Y-144596490D01*
X89622801Y-144988382D01*
X89407260Y-146067058D01*
G37*
G36*
X89740369Y-144400013D02*
G01*
X87779140Y-144008121D01*
X87994681Y-142929445D01*
X89955910Y-143321337D01*
X89740369Y-144400013D01*
G37*
G36*
X90073477Y-142732968D02*
G01*
X88112248Y-142341076D01*
X88327789Y-141262400D01*
X90289018Y-141654292D01*
X90073477Y-142732968D01*
G37*
%TD*%
%TO.C,D22*%
G36*
X86360277Y-141813662D02*
G01*
X84512518Y-141048295D01*
X84933469Y-140032028D01*
X86781228Y-140797395D01*
X86360277Y-141813662D01*
G37*
G36*
X85709715Y-143384257D02*
G01*
X83861956Y-142618890D01*
X84282907Y-141602623D01*
X86130666Y-142367990D01*
X85709715Y-143384257D01*
G37*
G36*
X85059153Y-144954852D02*
G01*
X83211394Y-144189485D01*
X83632345Y-143173218D01*
X85480104Y-143938585D01*
X85059153Y-144954852D01*
G37*
G36*
X80624531Y-143117972D02*
G01*
X78776772Y-142352605D01*
X79197723Y-141336338D01*
X81045482Y-142101705D01*
X80624531Y-143117972D01*
G37*
G36*
X81275093Y-141547377D02*
G01*
X79427334Y-140782010D01*
X79848285Y-139765743D01*
X81696044Y-140531110D01*
X81275093Y-141547377D01*
G37*
G36*
X81925655Y-139976782D02*
G01*
X80077896Y-139211415D01*
X80498847Y-138195148D01*
X82346606Y-138960515D01*
X81925655Y-139976782D01*
G37*
%TD*%
%TO.C,D21*%
G36*
X78464087Y-138351773D02*
G01*
X76802118Y-137239182D01*
X77414043Y-136325099D01*
X79076012Y-137437690D01*
X78464087Y-138351773D01*
G37*
G36*
X77518385Y-139764446D02*
G01*
X75856416Y-138651855D01*
X76468341Y-137737772D01*
X78130310Y-138850363D01*
X77518385Y-139764446D01*
G37*
G36*
X76572682Y-141177120D02*
G01*
X74910713Y-140064529D01*
X75522638Y-139150446D01*
X77184607Y-140263037D01*
X76572682Y-141177120D01*
G37*
G36*
X72583957Y-138506901D02*
G01*
X70921988Y-137394310D01*
X71533913Y-136480227D01*
X73195882Y-137592818D01*
X72583957Y-138506901D01*
G37*
G36*
X73529659Y-137094228D02*
G01*
X71867690Y-135981637D01*
X72479615Y-135067554D01*
X74141584Y-136180145D01*
X73529659Y-137094228D01*
G37*
G36*
X74475362Y-135681554D02*
G01*
X72813393Y-134568963D01*
X73425318Y-133654880D01*
X75087287Y-134767471D01*
X74475362Y-135681554D01*
G37*
%TD*%
%TO.C,D20*%
G36*
X71397336Y-133410991D02*
G01*
X69983122Y-131996777D01*
X70760940Y-131218959D01*
X72175154Y-132633173D01*
X71397336Y-133410991D01*
G37*
G36*
X70195254Y-134613072D02*
G01*
X68781040Y-133198858D01*
X69558858Y-132421040D01*
X70973072Y-133835254D01*
X70195254Y-134613072D01*
G37*
G36*
X68993173Y-135815154D02*
G01*
X67578959Y-134400940D01*
X68356777Y-133623122D01*
X69770991Y-135037336D01*
X68993173Y-135815154D01*
G37*
G36*
X65599060Y-132421041D02*
G01*
X64184846Y-131006827D01*
X64962664Y-130229009D01*
X66376878Y-131643223D01*
X65599060Y-132421041D01*
G37*
G36*
X66801142Y-131218960D02*
G01*
X65386928Y-129804746D01*
X66164746Y-129026928D01*
X67578960Y-130441142D01*
X66801142Y-131218960D01*
G37*
G36*
X68003223Y-130016878D02*
G01*
X66589009Y-128602664D01*
X67366827Y-127824846D01*
X68781041Y-129239060D01*
X68003223Y-130016878D01*
G37*
%TD*%
%TO.C,D19*%
G36*
X65427219Y-127191573D02*
G01*
X64317530Y-125527664D01*
X65232679Y-124917335D01*
X66342368Y-126581244D01*
X65427219Y-127191573D01*
G37*
G36*
X64012897Y-128134809D02*
G01*
X62903208Y-126470900D01*
X63818357Y-125860571D01*
X64928046Y-127524480D01*
X64012897Y-128134809D01*
G37*
G36*
X62598575Y-129078044D02*
G01*
X61488886Y-127414135D01*
X62404035Y-126803806D01*
X63513724Y-128467715D01*
X62598575Y-129078044D01*
G37*
G36*
X59935321Y-125084665D02*
G01*
X58825632Y-123420756D01*
X59740781Y-122810427D01*
X60850470Y-124474336D01*
X59935321Y-125084665D01*
G37*
G36*
X61349643Y-124141429D02*
G01*
X60239954Y-122477520D01*
X61155103Y-121867191D01*
X62264792Y-123531100D01*
X61349643Y-124141429D01*
G37*
G36*
X62763965Y-123198194D02*
G01*
X61654276Y-121534285D01*
X62569425Y-120923956D01*
X63679114Y-122587865D01*
X62763965Y-123198194D01*
G37*
%TD*%
%TO.C,D18*%
G36*
X60788585Y-119922104D02*
G01*
X60023218Y-118074345D01*
X61039485Y-117653394D01*
X61804852Y-119501153D01*
X60788585Y-119922104D01*
G37*
G36*
X59217990Y-120572666D02*
G01*
X58452623Y-118724907D01*
X59468890Y-118303956D01*
X60234257Y-120151715D01*
X59217990Y-120572666D01*
G37*
G36*
X57647395Y-121223228D02*
G01*
X56882028Y-119375469D01*
X57898295Y-118954518D01*
X58663662Y-120802277D01*
X57647395Y-121223228D01*
G37*
G36*
X55810515Y-116788606D02*
G01*
X55045148Y-114940847D01*
X56061415Y-114519896D01*
X56826782Y-116367655D01*
X55810515Y-116788606D01*
G37*
G36*
X57381110Y-116138044D02*
G01*
X56615743Y-114290285D01*
X57632010Y-113869334D01*
X58397377Y-115717093D01*
X57381110Y-116138044D01*
G37*
G36*
X58951705Y-115487482D02*
G01*
X58186338Y-113639723D01*
X59202605Y-113218772D01*
X59967972Y-115066531D01*
X58951705Y-115487482D01*
G37*
%TD*%
%TO.C,D17*%
G36*
X57653495Y-111890878D02*
G01*
X57265026Y-109928968D01*
X58344077Y-109715310D01*
X58732546Y-111677220D01*
X57653495Y-111890878D01*
G37*
G36*
X55985871Y-112221076D02*
G01*
X55597402Y-110259166D01*
X56676453Y-110045508D01*
X57064922Y-112007418D01*
X55985871Y-112221076D01*
G37*
G36*
X54318248Y-112551275D02*
G01*
X53929779Y-110589365D01*
X55008830Y-110375707D01*
X55397299Y-112337617D01*
X54318248Y-112551275D01*
G37*
G36*
X53385923Y-107842690D02*
G01*
X52997454Y-105880780D01*
X54076505Y-105667122D01*
X54464974Y-107629032D01*
X53385923Y-107842690D01*
G37*
G36*
X55053547Y-107512492D02*
G01*
X54665078Y-105550582D01*
X55744129Y-105336924D01*
X56132598Y-107298834D01*
X55053547Y-107512492D01*
G37*
G36*
X56721170Y-107182293D02*
G01*
X56332701Y-105220383D01*
X57411752Y-105006725D01*
X57800221Y-106968635D01*
X56721170Y-107182293D01*
G37*
%TD*%
D11*
%TO.C,D16*%
X56700000Y-102400000D03*
X55000000Y-102400000D03*
X53300000Y-102400000D03*
X53300000Y-97600000D03*
X55000000Y-97600000D03*
X56700000Y-97600000D03*
%TD*%
D12*
%TO.C,D15*%
G36*
X56326490Y-94780428D02*
G01*
X56718382Y-92819199D01*
X57797058Y-93034740D01*
X57405166Y-94995969D01*
X56326490Y-94780428D01*
G37*
G36*
X54659445Y-94447319D02*
G01*
X55051337Y-92486090D01*
X56130013Y-92701631D01*
X55738121Y-94662860D01*
X54659445Y-94447319D01*
G37*
G36*
X52992400Y-94114211D02*
G01*
X53384292Y-92152982D01*
X54462968Y-92368523D01*
X54071076Y-94329752D01*
X52992400Y-94114211D01*
G37*
G36*
X53932942Y-89407260D02*
G01*
X54324834Y-87446031D01*
X55403510Y-87661572D01*
X55011618Y-89622801D01*
X53932942Y-89407260D01*
G37*
G36*
X55599987Y-89740369D02*
G01*
X55991879Y-87779140D01*
X57070555Y-87994681D01*
X56678663Y-89955910D01*
X55599987Y-89740369D01*
G37*
G36*
X57267032Y-90073477D02*
G01*
X57658924Y-88112248D01*
X58737600Y-88327789D01*
X58345708Y-90289018D01*
X57267032Y-90073477D01*
G37*
%TD*%
%TO.C,D14*%
G36*
X58186338Y-86360277D02*
G01*
X58951705Y-84512518D01*
X59967972Y-84933469D01*
X59202605Y-86781228D01*
X58186338Y-86360277D01*
G37*
G36*
X56615743Y-85709715D02*
G01*
X57381110Y-83861956D01*
X58397377Y-84282907D01*
X57632010Y-86130666D01*
X56615743Y-85709715D01*
G37*
G36*
X55045148Y-85059153D02*
G01*
X55810515Y-83211394D01*
X56826782Y-83632345D01*
X56061415Y-85480104D01*
X55045148Y-85059153D01*
G37*
G36*
X56882028Y-80624531D02*
G01*
X57647395Y-78776772D01*
X58663662Y-79197723D01*
X57898295Y-81045482D01*
X56882028Y-80624531D01*
G37*
G36*
X58452623Y-81275093D02*
G01*
X59217990Y-79427334D01*
X60234257Y-79848285D01*
X59468890Y-81696044D01*
X58452623Y-81275093D01*
G37*
G36*
X60023218Y-81925655D02*
G01*
X60788585Y-80077896D01*
X61804852Y-80498847D01*
X61039485Y-82346606D01*
X60023218Y-81925655D01*
G37*
%TD*%
%TO.C,D13*%
G36*
X61648227Y-78464087D02*
G01*
X62760818Y-76802118D01*
X63674901Y-77414043D01*
X62562310Y-79076012D01*
X61648227Y-78464087D01*
G37*
G36*
X60235554Y-77518385D02*
G01*
X61348145Y-75856416D01*
X62262228Y-76468341D01*
X61149637Y-78130310D01*
X60235554Y-77518385D01*
G37*
G36*
X58822880Y-76572682D02*
G01*
X59935471Y-74910713D01*
X60849554Y-75522638D01*
X59736963Y-77184607D01*
X58822880Y-76572682D01*
G37*
G36*
X61493099Y-72583957D02*
G01*
X62605690Y-70921988D01*
X63519773Y-71533913D01*
X62407182Y-73195882D01*
X61493099Y-72583957D01*
G37*
G36*
X62905772Y-73529659D02*
G01*
X64018363Y-71867690D01*
X64932446Y-72479615D01*
X63819855Y-74141584D01*
X62905772Y-73529659D01*
G37*
G36*
X64318446Y-74475362D02*
G01*
X65431037Y-72813393D01*
X66345120Y-73425318D01*
X65232529Y-75087287D01*
X64318446Y-74475362D01*
G37*
%TD*%
%TO.C,D12*%
G36*
X66589009Y-71397336D02*
G01*
X68003223Y-69983122D01*
X68781041Y-70760940D01*
X67366827Y-72175154D01*
X66589009Y-71397336D01*
G37*
G36*
X65386928Y-70195254D02*
G01*
X66801142Y-68781040D01*
X67578960Y-69558858D01*
X66164746Y-70973072D01*
X65386928Y-70195254D01*
G37*
G36*
X64184846Y-68993173D02*
G01*
X65599060Y-67578959D01*
X66376878Y-68356777D01*
X64962664Y-69770991D01*
X64184846Y-68993173D01*
G37*
G36*
X67578959Y-65599060D02*
G01*
X68993173Y-64184846D01*
X69770991Y-64962664D01*
X68356777Y-66376878D01*
X67578959Y-65599060D01*
G37*
G36*
X68781040Y-66801142D02*
G01*
X70195254Y-65386928D01*
X70973072Y-66164746D01*
X69558858Y-67578960D01*
X68781040Y-66801142D01*
G37*
G36*
X69983122Y-68003223D02*
G01*
X71397336Y-66589009D01*
X72175154Y-67366827D01*
X70760940Y-68781041D01*
X69983122Y-68003223D01*
G37*
%TD*%
%TO.C,D11*%
G36*
X72808427Y-65427219D02*
G01*
X74472336Y-64317530D01*
X75082665Y-65232679D01*
X73418756Y-66342368D01*
X72808427Y-65427219D01*
G37*
G36*
X71865191Y-64012897D02*
G01*
X73529100Y-62903208D01*
X74139429Y-63818357D01*
X72475520Y-64928046D01*
X71865191Y-64012897D01*
G37*
G36*
X70921956Y-62598575D02*
G01*
X72585865Y-61488886D01*
X73196194Y-62404035D01*
X71532285Y-63513724D01*
X70921956Y-62598575D01*
G37*
G36*
X74915335Y-59935321D02*
G01*
X76579244Y-58825632D01*
X77189573Y-59740781D01*
X75525664Y-60850470D01*
X74915335Y-59935321D01*
G37*
G36*
X75858571Y-61349643D02*
G01*
X77522480Y-60239954D01*
X78132809Y-61155103D01*
X76468900Y-62264792D01*
X75858571Y-61349643D01*
G37*
G36*
X76801806Y-62763965D02*
G01*
X78465715Y-61654276D01*
X79076044Y-62569425D01*
X77412135Y-63679114D01*
X76801806Y-62763965D01*
G37*
%TD*%
%TO.C,D10*%
G36*
X80077896Y-60788585D02*
G01*
X81925655Y-60023218D01*
X82346606Y-61039485D01*
X80498847Y-61804852D01*
X80077896Y-60788585D01*
G37*
G36*
X79427334Y-59217990D02*
G01*
X81275093Y-58452623D01*
X81696044Y-59468890D01*
X79848285Y-60234257D01*
X79427334Y-59217990D01*
G37*
G36*
X78776772Y-57647395D02*
G01*
X80624531Y-56882028D01*
X81045482Y-57898295D01*
X79197723Y-58663662D01*
X78776772Y-57647395D01*
G37*
G36*
X83211394Y-55810515D02*
G01*
X85059153Y-55045148D01*
X85480104Y-56061415D01*
X83632345Y-56826782D01*
X83211394Y-55810515D01*
G37*
G36*
X83861956Y-57381110D02*
G01*
X85709715Y-56615743D01*
X86130666Y-57632010D01*
X84282907Y-58397377D01*
X83861956Y-57381110D01*
G37*
G36*
X84512518Y-58951705D02*
G01*
X86360277Y-58186338D01*
X86781228Y-59202605D01*
X84933469Y-59967972D01*
X84512518Y-58951705D01*
G37*
%TD*%
%TO.C,D9*%
G36*
X88109122Y-57653495D02*
G01*
X90071032Y-57265026D01*
X90284690Y-58344077D01*
X88322780Y-58732546D01*
X88109122Y-57653495D01*
G37*
G36*
X87778924Y-55985871D02*
G01*
X89740834Y-55597402D01*
X89954492Y-56676453D01*
X87992582Y-57064922D01*
X87778924Y-55985871D01*
G37*
G36*
X87448725Y-54318248D02*
G01*
X89410635Y-53929779D01*
X89624293Y-55008830D01*
X87662383Y-55397299D01*
X87448725Y-54318248D01*
G37*
G36*
X92157310Y-53385923D02*
G01*
X94119220Y-52997454D01*
X94332878Y-54076505D01*
X92370968Y-54464974D01*
X92157310Y-53385923D01*
G37*
G36*
X92487508Y-55053547D02*
G01*
X94449418Y-54665078D01*
X94663076Y-55744129D01*
X92701166Y-56132598D01*
X92487508Y-55053547D01*
G37*
G36*
X92817707Y-56721170D02*
G01*
X94779617Y-56332701D01*
X94993275Y-57411752D01*
X93031365Y-57800221D01*
X92817707Y-56721170D01*
G37*
%TD*%
D10*
%TO.C,D8*%
X97600000Y-56700000D03*
X97600000Y-55000000D03*
X97600000Y-53300000D03*
X102400000Y-53300000D03*
X102400000Y-55000000D03*
X102400000Y-56700000D03*
%TD*%
D12*
%TO.C,D7*%
G36*
X105219572Y-56326490D02*
G01*
X107180801Y-56718382D01*
X106965260Y-57797058D01*
X105004031Y-57405166D01*
X105219572Y-56326490D01*
G37*
G36*
X105552681Y-54659445D02*
G01*
X107513910Y-55051337D01*
X107298369Y-56130013D01*
X105337140Y-55738121D01*
X105552681Y-54659445D01*
G37*
G36*
X105885789Y-52992400D02*
G01*
X107847018Y-53384292D01*
X107631477Y-54462968D01*
X105670248Y-54071076D01*
X105885789Y-52992400D01*
G37*
G36*
X110592740Y-53932942D02*
G01*
X112553969Y-54324834D01*
X112338428Y-55403510D01*
X110377199Y-55011618D01*
X110592740Y-53932942D01*
G37*
G36*
X110259631Y-55599987D02*
G01*
X112220860Y-55991879D01*
X112005319Y-57070555D01*
X110044090Y-56678663D01*
X110259631Y-55599987D01*
G37*
G36*
X109926523Y-57267032D02*
G01*
X111887752Y-57658924D01*
X111672211Y-58737600D01*
X109710982Y-58345708D01*
X109926523Y-57267032D01*
G37*
%TD*%
%TO.C,D6*%
G36*
X113639723Y-58186338D02*
G01*
X115487482Y-58951705D01*
X115066531Y-59967972D01*
X113218772Y-59202605D01*
X113639723Y-58186338D01*
G37*
G36*
X114290285Y-56615743D02*
G01*
X116138044Y-57381110D01*
X115717093Y-58397377D01*
X113869334Y-57632010D01*
X114290285Y-56615743D01*
G37*
G36*
X114940847Y-55045148D02*
G01*
X116788606Y-55810515D01*
X116367655Y-56826782D01*
X114519896Y-56061415D01*
X114940847Y-55045148D01*
G37*
G36*
X119375469Y-56882028D02*
G01*
X121223228Y-57647395D01*
X120802277Y-58663662D01*
X118954518Y-57898295D01*
X119375469Y-56882028D01*
G37*
G36*
X118724907Y-58452623D02*
G01*
X120572666Y-59217990D01*
X120151715Y-60234257D01*
X118303956Y-59468890D01*
X118724907Y-58452623D01*
G37*
G36*
X118074345Y-60023218D02*
G01*
X119922104Y-60788585D01*
X119501153Y-61804852D01*
X117653394Y-61039485D01*
X118074345Y-60023218D01*
G37*
%TD*%
%TO.C,D5*%
G36*
X121535913Y-61648227D02*
G01*
X123197882Y-62760818D01*
X122585957Y-63674901D01*
X120923988Y-62562310D01*
X121535913Y-61648227D01*
G37*
G36*
X122481615Y-60235554D02*
G01*
X124143584Y-61348145D01*
X123531659Y-62262228D01*
X121869690Y-61149637D01*
X122481615Y-60235554D01*
G37*
G36*
X123427318Y-58822880D02*
G01*
X125089287Y-59935471D01*
X124477362Y-60849554D01*
X122815393Y-59736963D01*
X123427318Y-58822880D01*
G37*
G36*
X127416043Y-61493099D02*
G01*
X129078012Y-62605690D01*
X128466087Y-63519773D01*
X126804118Y-62407182D01*
X127416043Y-61493099D01*
G37*
G36*
X126470341Y-62905772D02*
G01*
X128132310Y-64018363D01*
X127520385Y-64932446D01*
X125858416Y-63819855D01*
X126470341Y-62905772D01*
G37*
G36*
X125524638Y-64318446D02*
G01*
X127186607Y-65431037D01*
X126574682Y-66345120D01*
X124912713Y-65232529D01*
X125524638Y-64318446D01*
G37*
%TD*%
%TO.C,D4*%
G36*
X128602664Y-66589009D02*
G01*
X130016878Y-68003223D01*
X129239060Y-68781041D01*
X127824846Y-67366827D01*
X128602664Y-66589009D01*
G37*
G36*
X129804746Y-65386928D02*
G01*
X131218960Y-66801142D01*
X130441142Y-67578960D01*
X129026928Y-66164746D01*
X129804746Y-65386928D01*
G37*
G36*
X131006827Y-64184846D02*
G01*
X132421041Y-65599060D01*
X131643223Y-66376878D01*
X130229009Y-64962664D01*
X131006827Y-64184846D01*
G37*
G36*
X134400940Y-67578959D02*
G01*
X135815154Y-68993173D01*
X135037336Y-69770991D01*
X133623122Y-68356777D01*
X134400940Y-67578959D01*
G37*
G36*
X133198858Y-68781040D02*
G01*
X134613072Y-70195254D01*
X133835254Y-70973072D01*
X132421040Y-69558858D01*
X133198858Y-68781040D01*
G37*
G36*
X131996777Y-69983122D02*
G01*
X133410991Y-71397336D01*
X132633173Y-72175154D01*
X131218959Y-70760940D01*
X131996777Y-69983122D01*
G37*
%TD*%
%TO.C,D3*%
G36*
X134572781Y-72808427D02*
G01*
X135682470Y-74472336D01*
X134767321Y-75082665D01*
X133657632Y-73418756D01*
X134572781Y-72808427D01*
G37*
G36*
X135987103Y-71865191D02*
G01*
X137096792Y-73529100D01*
X136181643Y-74139429D01*
X135071954Y-72475520D01*
X135987103Y-71865191D01*
G37*
G36*
X137401425Y-70921956D02*
G01*
X138511114Y-72585865D01*
X137595965Y-73196194D01*
X136486276Y-71532285D01*
X137401425Y-70921956D01*
G37*
G36*
X140064679Y-74915335D02*
G01*
X141174368Y-76579244D01*
X140259219Y-77189573D01*
X139149530Y-75525664D01*
X140064679Y-74915335D01*
G37*
G36*
X138650357Y-75858571D02*
G01*
X139760046Y-77522480D01*
X138844897Y-78132809D01*
X137735208Y-76468900D01*
X138650357Y-75858571D01*
G37*
G36*
X137236035Y-76801806D02*
G01*
X138345724Y-78465715D01*
X137430575Y-79076044D01*
X136320886Y-77412135D01*
X137236035Y-76801806D01*
G37*
%TD*%
%TO.C,D2*%
G36*
X139211415Y-80077896D02*
G01*
X139976782Y-81925655D01*
X138960515Y-82346606D01*
X138195148Y-80498847D01*
X139211415Y-80077896D01*
G37*
G36*
X140782010Y-79427334D02*
G01*
X141547377Y-81275093D01*
X140531110Y-81696044D01*
X139765743Y-79848285D01*
X140782010Y-79427334D01*
G37*
G36*
X142352605Y-78776772D02*
G01*
X143117972Y-80624531D01*
X142101705Y-81045482D01*
X141336338Y-79197723D01*
X142352605Y-78776772D01*
G37*
G36*
X144189485Y-83211394D02*
G01*
X144954852Y-85059153D01*
X143938585Y-85480104D01*
X143173218Y-83632345D01*
X144189485Y-83211394D01*
G37*
G36*
X142618890Y-83861956D02*
G01*
X143384257Y-85709715D01*
X142367990Y-86130666D01*
X141602623Y-84282907D01*
X142618890Y-83861956D01*
G37*
G36*
X141048295Y-84512518D02*
G01*
X141813662Y-86360277D01*
X140797395Y-86781228D01*
X140032028Y-84933469D01*
X141048295Y-84512518D01*
G37*
%TD*%
%TO.C,D1*%
G36*
X142346505Y-88109122D02*
G01*
X142734974Y-90071032D01*
X141655923Y-90284690D01*
X141267454Y-88322780D01*
X142346505Y-88109122D01*
G37*
G36*
X144014129Y-87778924D02*
G01*
X144402598Y-89740834D01*
X143323547Y-89954492D01*
X142935078Y-87992582D01*
X144014129Y-87778924D01*
G37*
G36*
X145681752Y-87448725D02*
G01*
X146070221Y-89410635D01*
X144991170Y-89624293D01*
X144602701Y-87662383D01*
X145681752Y-87448725D01*
G37*
G36*
X146614077Y-92157310D02*
G01*
X147002546Y-94119220D01*
X145923495Y-94332878D01*
X145535026Y-92370968D01*
X146614077Y-92157310D01*
G37*
G36*
X144946453Y-92487508D02*
G01*
X145334922Y-94449418D01*
X144255871Y-94663076D01*
X143867402Y-92701166D01*
X144946453Y-92487508D01*
G37*
G36*
X143278830Y-92817707D02*
G01*
X143667299Y-94779617D01*
X142588248Y-94993275D01*
X142199779Y-93031365D01*
X143278830Y-92817707D01*
G37*
%TD*%
M02*
