M48
; DRILL file {KiCad 5.1.12-84ad8e8a86~92~ubuntu20.04.1} date Fr 26 Nov 2021 14:05:07 CET
; FORMAT={-:-/ absolute / inch / decimal}
; #@! TF.CreationDate,2021-11-26T14:05:07+01:00
; #@! TF.GenerationSoftware,Kicad,Pcbnew,5.1.12-84ad8e8a86~92~ubuntu20.04.1
FMAT,2
INCH
T1C0.0157
T2C0.0197
T3C0.1260
%
G90
G05
T1
X2.0984Y-3.7677
X2.0984Y-3.9685
X2.0984Y-4.1299
X2.126Y-3.6102
X2.1417Y-4.3228
X2.1654Y-3.4134
X2.1732Y-4.4843
X2.2323Y-3.2638
X2.252Y-4.6654
X2.3031Y-3.0787
X2.311Y-4.8228
X2.3524Y-3.7992
X2.3524Y-4.1339
X2.372Y-4.3307
X2.3898Y-2.9409
X2.4291Y-4.9803
X2.4567Y-3.8701
X2.4961Y-2.7795
X2.5157Y-5.1181
X2.5787Y-3.8091
X2.6181Y-2.6614
X2.6378Y-4.2913
X2.6575Y-5.2598
X2.748Y-2.5236
X2.7756Y-5.374
X2.7795Y-3.8701
X2.7953Y-4.1339
X2.8839Y-4.2913
X2.8898Y-2.4252
X2.8937Y-3.8091
X2.937Y-5.4843
X3.0512Y-2.3189
X3.0827Y-5.5748
X3.1024Y-3.8701
X3.2047Y-2.252
X3.2185Y-3.8091
X3.2598Y-5.6457
X3.3819Y-2.1772
X3.4173Y-5.7087
X3.4213Y-3.8701
X3.4843Y-3.9862
X3.5433Y-3.8091
X3.5512Y-2.1378
X3.6063Y-5.748
X3.7362Y-2.1024
X3.7441Y-3.874
X3.7717Y-5.7756
X3.8031Y-3.9862
X3.8681Y-3.8091
X3.9055Y-2.0984
X3.9685Y-5.7756
X4.0669Y-3.8701
X4.1024Y-2.0984
X4.124Y-3.9862
X4.1339Y-5.7756
X4.1831Y-3.8091
X4.2677Y-2.1299
X4.3228Y-5.7323
X4.3898Y-3.8701
X4.4488Y-3.9862
X4.4528Y-2.1654
X4.4882Y-5.7008
X4.5079Y-3.8091
X4.6142Y-2.2283
X4.6654Y-5.622
X4.7126Y-3.8701
X4.7677Y-3.9862
X4.7913Y-2.2992
X4.8228Y-5.5591
X4.8327Y-3.8091
X4.9331Y-2.3937
X4.9803Y-5.4449
X5.0295Y-3.5728
X5.0354Y-3.8701
X5.0945Y-2.5
X5.0945Y-3.9862
X5.1181Y-5.3543
X5.1476Y-3.8091
X5.2165Y-2.6142
X5.2559Y-3.5728
X5.2559Y-5.2126
X5.3543Y-2.752
X5.3543Y-3.8701
X5.374Y-5.0984
X5.4134Y-3.9862
X5.4488Y-2.8898
X5.4764Y-4.9291
X5.4921Y-3.5433
X5.5512Y-3.8484
X5.5591Y-3.0512
X5.5709Y-4.7953
X5.622Y-3.2047
X5.6457Y-4.6142
X5.7008Y-3.3819
X5.7087Y-4.4567
X5.7323Y-3.5512
X5.748Y-4.2638
X5.7717Y-3.7362
X5.7756Y-3.9055
X5.7756Y-4.0984
T2
X2.6941Y-4.2224
X2.7433Y-4.2224
X2.7925Y-4.2224
X2.8417Y-4.2224
X5.0268Y-3.6516
X5.076Y-3.6516
X5.1252Y-3.6516
X5.1744Y-3.6516
T3
X2.4882Y-4.2224
X5.3866Y-3.6516
T0
M30
